<?xml version="1.0" encoding="UTF-8" standalone="no"?>
<svg
   width="86.698799mm"
   height="86.698799mm"
   viewBox="0 0 1024 1024"
   version="1.1"
   id="svg1"
   sodipodi:docname="neural_bee_2.svg"
   inkscape:version="1.3.2 (091e20e, 2023-11-25)"
   inkscape:export-filename="rendu/eirbia_prop_4_bis.png"
   inkscape:export-xdpi="96"
   inkscape:export-ydpi="96"
   xml:space="preserve"
   inkscape:label="asy_neural_bee"
   xmlns:inkscape="http://www.inkscape.org/namespaces/inkscape"
   xmlns:sodipodi="http://sodipodi.sourceforge.net/DTD/sodipodi-0.dtd"
   xmlns="http://www.w3.org/2000/svg"
   xmlns:svg="http://www.w3.org/2000/svg"><defs
     id="defs1" /><sodipodi:namedview
     id="namedview1"
     pagecolor="#ffffff"
     bordercolor="#000000"
     borderopacity="0.25"
     inkscape:showpageshadow="2"
     inkscape:pageopacity="0.0"
     inkscape:pagecheckerboard="0"
     inkscape:deskcolor="#d1d1d1"
     inkscape:document-units="mm"
     inkscape:zoom="2.8284271"
     inkscape:cx="159.98291"
     inkscape:cy="161.39712"
     inkscape:window-width="1920"
     inkscape:window-height="1011"
     inkscape:window-x="0"
     inkscape:window-y="32"
     inkscape:window-maximized="1"
     inkscape:current-layer="layer2"
     showguides="true"><sodipodi:guide
       position="136.0249,968.69852"
       orientation="1,0"
       id="guide6"
       inkscape:locked="false" /><sodipodi:guide
       position="965.11789,953.38507"
       orientation="1,0"
       id="guide7"
       inkscape:locked="false" /><sodipodi:guide
       position="712.97682,80.982362"
       orientation="0,-1"
       id="guide3"
       inkscape:locked="false" /><sodipodi:guide
       position="997.3415,955.47752"
       orientation="1,0"
       id="guide4"
       inkscape:locked="false" /><sodipodi:guide
       position="839.54476,81.795559"
       orientation="0,-1"
       id="guide5"
       inkscape:locked="false" /></sodipodi:namedview><g
     inkscape:groupmode="layer"
     id="layer2"
     inkscape:label="polygon"><path
       sodipodi:type="star"
       style="fill:#000000;fill-opacity:1;stroke:#f7ac4c;stroke-width:23.622;stroke-dasharray:none;stroke-opacity:1"
       id="path1"
       inkscape:flatsided="true"
       sodipodi:sides="6"
       sodipodi:cx="52.347023"
       sodipodi:cy="929.92554"
       sodipodi:r1="479.62897"
       sodipodi:r2="498.8674"
       sodipodi:arg1="-1.0473285"
       sodipodi:arg2="-0.52372968"
       inkscape:rounded="0"
       inkscape:randomized="0"
       d="M 292.10711,514.52327 531.97599,929.86273 292.2159,1345.265 l -479.62897,0.063 -239.86887,-415.33946 239.76009,-415.40227 z"
       inkscape:transform-center-y="-6.6078764e-06"
       transform="translate(459.65297,-417.92554)" /></g><g
     inkscape:groupmode="layer"
     id="layer3"
     inkscape:label="IA_astonpoliz_font"
     style="display:none"><text
       xml:space="preserve"
       style="font-size:482.374px;fill:#ffffff;fill-opacity:1;stroke:#000000;stroke-width:2.0836;stroke-dasharray:none;stroke-opacity:1"
       x="646.13763"
       y="621.41235"
       id="text4"
       inkscape:label="A"
       transform="scale(0.88144099,1.1345059)"><tspan
         sodipodi:role="line"
         id="tspan4"
         style="font-style:normal;font-variant:normal;font-weight:normal;font-stretch:normal;font-size:482.374px;font-family:Astonpoliz;-inkscape-font-specification:Astonpoliz;stroke-width:2.0836"
         x="646.13763"
         y="621.41235">A</tspan></text><text
       xml:space="preserve"
       style="font-style:normal;font-variant:normal;font-weight:normal;font-stretch:normal;font-size:546.874px;font-family:Astonpoliz;-inkscape-font-specification:Astonpoliz;fill:#ffffff;fill-opacity:1;stroke:#000000;stroke-width:2.3622;stroke-dasharray:none;stroke-opacity:1"
       x="251.22427"
       y="701.49182"
       id="text3"
       inkscape:label="I"><tspan
         sodipodi:role="line"
         id="tspan3"
         style="font-style:normal;font-variant:normal;font-weight:normal;font-stretch:normal;font-size:546.874px;font-family:Astonpoliz;-inkscape-font-specification:Astonpoliz;stroke-width:2.3622"
         x="251.22427"
         y="701.49182">I</tspan></text></g><g
     inkscape:groupmode="layer"
     id="g5"
     inkscape:label="IA_ubuntu_font"
     style="display:inline"><path
       style="font-size:482.374px;font-family:Ubuntu;-inkscape-font-specification:Ubuntu;fill:#ffffff;stroke:#000000;stroke-width:2.0836"
       d="m 911.90895,621.41235 q -8.20035,-21.70683 -15.43596,-42.44891 -7.23561,-21.22445 -14.9536,-42.93128 H 730.05396 l -30.38956,85.38019 h -48.71978 q 19.29496,-53.06114 36.17805,-97.92192 16.88309,-45.34315 32.80144,-85.86257 16.40071,-40.51941 32.31905,-77.17984 15.91834,-37.14279 33.28381,-73.32084 h 42.93128 q 17.36547,36.17805 33.28381,73.32084 15.91834,36.66043 31.83668,77.17984 16.40072,40.51942 33.28381,85.86257 16.88309,44.86078 36.17805,97.92192 z M 868.01292,497.44224 q -15.43597,-41.96654 -30.87193,-81.03883 -14.9536,-39.55467 -31.35431,-75.73272 -16.88309,36.17805 -32.31906,75.73272 -14.9536,39.07229 -29.90719,81.03883 z"
       id="text2"
       inkscape:label="A"
       transform="scale(0.88144099,1.1345059)"
       aria-label="A" /><path
       style="font-size:546.874px;font-family:Ubuntu;-inkscape-font-specification:Ubuntu;fill:#ffffff;stroke:#000000;stroke-width:2.3622"
       d="m 280.84028,322.50812 h 53.04678 v 378.9837 h -53.04678 z"
       id="text5"
       inkscape:label="I"
       aria-label="I" /></g><path
     id="Selection"
     fill="none"
     stroke="#000000"
     stroke-width="1.16255"
     d="m 358.50045,324.87663 c 0,0 0,40.68875 0,40.68875 0,1.88315 0.16265,6.02191 -0.66272,7.61436 -1.49959,2.90664 -5.11518,2.29019 -6.61468,-0.90671 -1.02295,-2.16221 -0.86031,-6.57985 -0.86031,-9.03282 0,0 0,-27.9008 0,-27.9008 0,-2.81321 0.24409,-6.56813 -1.18574,-9.05607 -1.94163,-3.383 -5.83604,-4.127 -8.10292,-9.56767 -2.44133,-5.83583 0.13931,-11.09042 -1.38338,-15.08962 -1.31369,-3.47599 -12.12509,-15.14779 -15.22908,-18.58895 -2.17407,-2.4063 -4.49904,-5.08011 -7.81232,-5.77767 -2.76695,-0.59288 -6.75427,0.94172 -10.46285,0.62771 -3.89447,0.24397 -6.3823,-1.25542 -9.3002,0 -3.56912,0.93001 -10.92781,9.05632 -13.625,12.11352 0,0 -22.20426,23.14595 -22.20426,23.14595 0,0 -12.28782,14.83387 -12.28782,14.83387 -4.34816,2.3484 -9.28864,-1.7786 -7.87035,-6.47516 0.76714,-2.49953 10.39287,-10.33506 12.97373,-12.90411 0,0 21.03016,-22.0882 21.03016,-22.0882 0,0 10.82326,-11.29966 10.82326,-11.29966 5.83599,-6.95194 0.70906,-9.90462 0,-17.76358 -0.65095,-5.90541 2.54593,-13.02022 6.85877,-16.98456 5.55695,-5.10333 16.00817,-6.55663 22.90194,-3.67363 7.01016,2.91799 7.63789,7.83558 15.11296,4.66187 0,0 31.02804,-16.12439 31.02804,-16.12439 3.52252,-3.37151 2.0693,-6.61482 3.8595,-10.86984 2.62737,-6.27763 8.64934,-8.62578 15.10136,-8.03304 5.95206,0.55827 7.12622,3.45286 10.78833,2.96458 2.66203,-0.34892 13.95042,-6.8939 17.11242,-8.55615 0,0 33.71333,-16.91498 33.71333,-16.91498 0,0 31.38858,-16.18248 31.38858,-16.18248 3.3827,-1.77861 12.40402,-6.23113 14.70599,-8.64924 3.28997,-3.45274 1.02306,-5.68461 2.9992,-12.07873 3.4528,-11.20669 11.69495,-15.64772 22.98329,-15.06628 9.10265,0.47642 16.20576,6.37069 18.83299,15.06628 1.34852,4.46421 0.12814,8.69571 3.61562,12.33456 2.46466,2.56926 10.07901,5.89381 13.59005,7.78892 0,0 32.55075,16.78697 32.55075,16.78697 0,0 34.87603,17.75205 34.87603,17.75205 0,0 13.95025,6.97503 13.95025,6.97503 6.01049,1.7786 11.79979,-5.39399 20.90241,-0.8254 9.16081,4.60362 6.20794,13.10164 10.84638,17.50775 2.2321,2.10409 8.27713,4.59196 11.26487,6.08009 0,0 18.60082,9.45128 18.60082,9.45128 9.2536,4.2083 6.81222,-1.48786 17.43768,-4.41754 13.96221,-3.85957 26.23835,3.96421 27.51717,18.68193 0.62781,7.14954 -3.31306,11.82282 -1.74393,15.93836 0.93017,2.4644 9.25398,10.85782 11.42797,13.12501 0,0 24.41301,25.57552 24.41301,25.57552 2.33673,2.3251 11.10229,9.48652 11.81155,11.76487 1.5113,4.91738 -4.16224,9.41657 -8.84704,5.85923 0,0 -7.7424,-10.64889 -7.7424,-10.64889 0,0 -27.77295,-29.06326 -27.77295,-29.06326 -2.1971,-2.23205 -8.4283,-9.55587 -10.83473,-10.43954 -3.05729,-1.10453 -7.17279,0.74406 -11.25326,0.74406 -2.90647,0 -6.84754,-1.24394 -9.30035,-0.72075 -3.35956,0.709 -5.47559,3.33632 -7.64928,5.77767 -3.65046,4.1154 -15.11291,16.31039 -16.43839,20.91394 -0.74405,3.40639 1.04618,6.06852 0,10.46293 -2.104,7.32396 -8.11447,8.84671 -10.0907,13.99684 -1.20909,3.1504 -0.75561,26.31968 -0.69758,31.34175 0.034,2.74358 2.83669,17.97285 -4.33622,14.64803 -2.96447,-1.37188 -2.61582,-6.12658 -2.63913,-8.83521 0,0 0,-20.92557 0,-20.92557 0,0 0,-19.76318 0,-19.76318 -15.28718,-2.9295 -15.71715,-19.35628 -7.9864,-26.41267 6.89377,-6.28942 13.93859,-2.20869 18.44919,-4.03398 3.49929,-1.41821 8.59125,-7.30068 11.13727,-10.24179 2.55747,-2.95304 10.41624,-10.61408 10.38134,-14.27597 0,0 -2.53434,-8.97491 -2.53434,-8.97491 -0.48817,-2.75508 -0.10344,-6.54502 -1.56934,-8.8467 -1.47641,-2.31345 -5.69657,-4.22024 -8.11449,-5.59194 -4.82452,-2.73194 -23.42498,-13.0435 -27.90089,-13.13639 -5.06853,-0.11638 -10.25336,5.40547 -18.60036,1.49948 -10.59069,-4.96405 -6.24281,-13.88058 -12.95082,-19.14682 0,0 -25.41276,-13.19483 -25.41276,-13.19483 0,0 -43.01361,-22.08798 -43.01361,-22.08798 0,0 -17.43797,-8.75398 -17.43797,-8.75398 -2.25547,-1.1858 -6.97528,-4.1618 -9.25399,-4.41783 -5.06851,-0.56946 -4.95213,4.5341 -15.15914,6.48714 0,0 -1.16282,13.95049 -1.16282,13.95049 0,0 0,19.76285 0,19.76285 0.0217,10.78842 1.43012,9.60266 1.76726,13.95048 0.29063,3.76664 -2.04616,7.67275 -6.26621,6.20797 -5.51035,-1.90656 -2.53436,-11.99743 -2.47613,-16.67075 0,0 0,-37.20104 0,-37.20104 -10.68371,-1.23234 -10.85804,-7.70758 -16.4731,-6.19637 0,0 -10.26518,5.31284 -10.26518,5.31284 0,0 -24.41315,12.57868 -24.41315,12.57868 0,0 -58.06851,30.10956 -58.06851,30.10956 -8.55629,6.0684 -3.61539,14.31087 -12.95057,18.85635 -9.45132,4.61521 -15.08972,-1.44156 -19.6584,-1.15095 -2.61571,0.16273 -6.8239,2.87148 -9.30034,4.11533 0,0 -19.76299,10.10228 -19.76299,10.10228 -2.31329,1.3138 -6.66123,3.4992 -7.96325,5.778 -0.96485,1.68557 -1.01154,5.55681 -1.39499,7.68413 -0.48842,2.65056 -2.10427,6.9056 -1.73219,9.30019 0.59282,3.89485 7.45171,10.66069 10.21862,13.95069 2.45304,2.94111 6.78909,8.83501 10.18368,10.24179 4.48734,1.86001 12.04389,-2.18559 18.46112,3.04575 9.71876,7.90541 7.25422,24.40172 -6.84736,27.4009 z m 150.66406,-85.99255 c 8.87025,-3.40614 10.30007,6.73107 4.95234,8.80052 -4.15019,1.60421 -8.71881,-3.4179 -4.95234,-8.80052 z m -33.24836,88.31756 c -4.52228,-10.48597 -10.59076,-20.33263 -17.94953,-29.06324 -1.9182,-2.2786 -6.56803,-7.78899 -9.27695,-8.70734 -2.39494,-0.81386 -5.19653,0.68589 -8.81184,0.86008 -4.53403,0.20961 -10.2189,-1.59242 -13.70649,-4.52198 -14.85718,-12.46241 -1.25544,-39.94481 19.51895,-30.67931 11.12555,4.95249 10.05607,14.83391 12.76441,19.79802 2.05789,3.75477 6.17312,6.81237 9.18411,9.89307 4.30134,4.39433 10.04437,11.71838 13.48551,16.84511 0,0 9.3119,15.40354 9.3119,15.40354 2.24372,1.53455 5.12677,0.48832 7.56798,0 7.03326,-1.27877 9.10265,-1.53445 16.27548,-1.45327 0,0 19.28639,2.09275 19.28639,2.09275 2.54589,-1.29046 8.16119,-14.96175 10.18396,-18.36811 6.11489,-10.31163 16.44963,-18.24004 19.86737,-23.25061 4.5457,-6.67282 3.55754,-21.16959 20.41434,-22.04167 13.613,-0.69751 23.2506,9.77689 19.40248,23.20425 -2.23206,7.78879 -9.12592,12.47393 -17.07756,12.70663 -5.55678,0.18582 -8.05634,-1.69761 -11.62516,0 -2.96454,1.39474 -6.48712,5.66138 -8.59118,8.21884 -4.45256,5.40573 -12.1832,15.71754 -14.75274,22.08812 -0.76713,1.90645 -1.33669,3.66195 -0.68563,5.70797 1.2205,3.7668 9.00953,8.62599 14.78728,19.8678 9.97462,19.41424 5.05712,44.10653 -12.84601,56.96408 -15.5895,-12.40425 -33.70174,-18.42613 -53.47644,-13.52029 -7.71923,1.91814 -12.90422,3.68527 -19.76294,7.91697 -3.1971,1.96459 -6.48688,5.55681 -10.41643,3.58052 -3.90612,-1.97638 -8.84694,-10.26529 -10.7534,-14.25266 -9.66048,-20.13513 -3.53409,-49.17526 17.68214,-59.28927 z m -96.49022,145.31649 c 4.88292,4.88286 8.69571,4.15053 15.11309,4.83616 0,0 22.08793,2.12758 22.08793,2.12758 0,0 21.83243,-3.03416 21.83243,-3.03416 1.54628,0.32531 2.232,0.93012 3.09228,2.22058 1.60436,2.38303 8.28896,20.59965 7.89368,22.91315 -0.60445,3.49936 -4.88259,7.94025 -7.28919,10.46307 0,0 -18.56562,18.78649 -18.56562,18.78649 -23.62258,21.5997 -54.15054,38.35178 -86.01571,43.47846 0,0 -22.08814,1.77866 -22.08814,1.77866 0,0 -9.30023,1.01156 -9.30023,1.01156 -5.30098,0.2093 -6.85886,-0.46503 -11.62533,-0.9185 -14.83396,-1.41837 -23.84333,-2.47615 -38.36362,-6.84719 -5.90552,-1.77872 -14.21765,-3.77832 -15.67098,-10.7883 -0.79052,-3.82486 3.66214,-24.09927 4.76643,-29.06319 0.99987,-4.23164 3.03429,-8.63793 0,-12.41594 0,0 -25.13373,-18.51929 -25.13373,-18.51929 -2.84832,-2.34817 -8.57963,-8.17248 -11.62542,-9.11419 -3.24363,-0.99981 -6.66129,0.96491 -10.46278,1.23233 -5.16169,0.37204 -10.97411,-1.95313 -14.49676,-5.74296 -5.51046,-5.92892 -6.90532,-15.7756 -2.83652,-22.86702 2.89465,-5.0571 6.95185,-6.45208 7.05645,-10.56738 0,0 -6.67307,-21.98368 -6.67307,-21.98368 -2.59214,-9.46285 -7.34712,-34.73617 -7.46323,-44.17592 -0.0341,-3.41789 0.41843,-8.52152 -1.1858,-11.52087 -1.60437,-2.99904 -4.80123,-4.73141 -7.35891,-8.28876 -4.89428,-6.77761 -5.05692,-17.83325 0.73239,-24.1457 5.89408,-6.45211 17.69366,-8.05654 25.20372,-3.60382 4.41755,2.61547 5.53365,6.33574 10.52113,7.67261 0,0 37.18931,5.76609 37.18931,5.76609 0,0 26.7381,6.56827 26.7381,6.56827 0,0 6.97523,0 6.97523,0 12.03236,-0.8719 13.28766,4.23165 19.76323,6.97524 0,0 19.7628,5.97549 19.7628,5.97549 0,0 24.41313,10.20706 24.41313,10.20706 7.55653,2.62717 12.07892,-2.58086 19.73982,1.26721 7.40531,3.71988 5.04542,8.86989 11.71836,13.18301 0,0 33.6436,17.04269 33.6436,17.04269 0,0 43.01398,25.21528 43.01398,25.21528 0,0 -4.84785,21.4255 -4.84785,21.4255 0,0 -16.0778,4.15044 -16.0778,4.15044 z m 203.44316,-11.62531 c 0,0 -1.581,-21.87875 -1.581,-21.87875 1.45311,-3.95269 10.64899,-8.67253 14.36877,-10.90451 0,0 44.17639,-24.47129 44.17639,-24.47129 4.1967,-2.09264 14.22941,-6.71936 17.28675,-9.46298 4.87096,-4.35963 4.48735,-9.04448 11.77638,-12.23 7.37059,-3.22012 11.21867,1.31383 18.60075,-1.06951 0,0 25.57556,-10.16049 25.57556,-10.16049 0,0 19.65858,-6.13819 19.65858,-6.13819 4.25461,-1.89493 5.41735,-4.59201 10.56712,-6.4985 6.02212,-1.6159 10.80024,0.22069 15.1131,0 0,0 24.41323,-6.46364 24.41323,-6.46364 0,0 39.51437,-6.47536 39.51437,-6.47536 5.243,-1.59263 6.19622,-4.83606 10.5209,-7.3703 7.78906,-4.58048 20.21651,-2.75528 25.7037,4.66156 4.92891,6.67286 5.61492,16.01968 0.82517,22.93686 -2.65042,3.82467 -6.48679,5.3708 -7.78891,9.60241 0,0 -2.83654,26.63374 -2.83654,26.63374 -1.9298,14.32223 -7.90524,39.28186 -13.62483,52.31383 12.27627,7.61481 14.61312,24.22722 2.30176,33.12045 -8.21899,5.94073 -17.83318,0.74411 -22.06465,2.15076 -2.45296,0.82558 -10.14912,7.73086 -12.78797,9.83503 0,0 -24.15749,17.39146 -24.15749,17.39146 -3.54569,3.77839 -1.18565,8.56798 0,13.0671 1.30204,5.99852 6.2079,26.35433 3.92933,31.27184 -1.27877,2.7437 -3.87112,4.28967 -6.51009,5.52218 -12.55532,5.83586 -33.77162,8.78873 -47.66378,9.8116 0,0 -9.30037,0.96495 -9.30037,0.96495 0,0 -18.60046,-1.0695 -18.60046,-1.0695 -28.48192,-0.33706 -57.23139,-13.97367 -80.21486,-29.83037 -13.35732,-9.20732 -24.75017,-19.53074 -35.36401,-31.78389 -2.91797,-3.35956 -9.75363,-9.57925 -9.99768,-13.95026 0,0 8.16078,-24.41326 8.16078,-24.41326 0,0 26.73826,3.47608 26.73826,3.47608 0,0 36.03847,-4.63841 36.03847,-4.63841 0,0 0,-2.32533 0,-2.32533 -16.72875,-3.15039 -46.75707,-11.27641 -62.77673,-11.62531 z m -52.30216,-113.9281 c -8.5331,1.97637 -5.42931,10.12575 0,10.12575 5.63819,0 8.56781,-7.88202 0,-10.12575 z m -331.3333,16.27549 c 4.75481,9.2305 14.02,18.75187 20.92559,26.73824 5.35897,6.20795 6.47517,9.93965 15.1128,9.66058 2.51112,-0.0919 7.31245,0.60457 9.19561,0 3.53415,-1.1393 13.52016,-12.89261 14.36896,-16.64731 0.46491,-2.05766 -0.11632,-5.95226 -1.12765,-7.78906 -1.95298,-3.54572 -10.50942,-4.41752 -14.29933,-5.23128 -14.63629,-3.16207 -29.14445,-6.73117 -44.17598,-6.73117 z m 625.4421,0 c -10.71851,0 -14.03174,0.81373 -24.41303,2.61576 0,0 -23.25077,4.78954 -23.25077,4.78954 -2.83642,0.70915 -7.49836,1.49973 -9.47483,3.70848 -6.03347,6.75433 1.01153,14.03179 5.3013,19.11205 2.06939,2.42977 4.51063,5.88252 7.8587,6.44044 0,0 5.61519,-0.61603 5.61519,-0.61603 2.63892,0.092 5.7195,0.74383 8.13771,0 4.13852,-1.9183 14.26425,-14.59003 17.76353,-18.61236 4.68482,-5.39411 10.42785,-10.43931 12.4622,-17.43788 z m -634.74237,8.13776 c 0,13.7412 -0.20934,11.84628 1.8368,25.57562 0.43003,2.89478 0.61607,7.44019 2.60402,9.64912 2.34824,2.60413 8.45154,3.38299 11.83461,3.99899 4.34784,0.95337 11.93929,4.05739 15.08961,0 3.5342,-4.68481 -0.26731,-8.91658 -3.1852,-12.48539 0,0 -16.53146,-18.60069 -16.53146,-18.60069 -4.37088,-4.66151 -5.17315,-7.06813 -11.64838,-8.13765 z m 644.04273,0 c 0,0 -4.16197,1.15089 -4.16197,1.15089 0,0 -20.19305,22.09986 -20.19305,22.09986 0,0 -7.26587,10.46263 -7.26587,10.46263 0,0 2.55747,8.13766 2.55747,8.13766 0,0 25.57577,-4.65017 25.57577,-4.65017 2.45315,-13.62472 3.48765,-23.35508 3.48765,-37.20087 z m -543.79775,12.36936 c -7.27738,5.19653 1.82537,12.09029 5.88243,16.3919 3.56906,3.78969 11.53226,14.40367 15.98498,15.84515 2.9759,0.95305 6.23112,-0.37203 9.25357,-0.94188 1.65063,0.10418 4.0806,0.30232 5.56867,0 3.85962,-1.732 10.4046,-12.04371 4.53385,-17.14717 -1.79027,-1.55777 -7.68426,-3.91766 -10.10252,-4.89428 -7.32394,-2.9527 -23.8203,-10.32343 -31.12098,-9.25372 z m 441.44838,-0.19762 c 0,0 -27.85421,9.24201 -27.85421,9.24201 -2.69725,1.03464 -9.07947,3.37142 -10.9627,5.28957 -4.28963,4.35939 0.12772,13.62505 4.5223,16.32195 1.72038,1.04623 11.36955,2.06933 13.41542,1.75547 3.82487,-0.59282 6.67305,-3.83635 9.3005,-6.41712 0,0 15.8104,-17.43812 15.8104,-17.43812 3.02247,-4.76626 0.88341,-7.96323 -4.23171,-8.75376 z m -426.6027,40.1421 c -2.77852,-7.09147 -12.69503,-16.79853 -18.12375,-23.25063 -2.5809,-3.06903 -6.01059,-7.83527 -9.97475,-8.96299 -1.67409,-0.4767 -8.67256,-1.04639 -10.26517,-0.60466 -5.84752,1.59287 -15.4732,12.48573 -14.13628,18.86806 1.62746,7.67269 6.68448,6.92857 12.97376,8.13765 12.45065,2.39485 27.00568,5.80098 39.52619,5.81257 z m 415.02401,1.16265 c 0,0 36.03831,-6.74273 36.03831,-6.74273 3.96429,-0.76724 11.39292,-1.11582 13.85755,-4.21999 1.37171,-1.73213 2.60404,-5.42905 2.29003,-7.63785 -0.68574,-4.77793 -10.13726,-15.01984 -14.985,-15.70588 -11.75318,-1.67397 -20.10015,11.93925 -26.843,19.19358 -5.1382,5.53356 -8.71902,7.4053 -10.35789,15.11287 z M 510.79218,403.30117 c 32.62064,-1.65083 58.83568,26.91242 58.11509,58.75426 -0.17467,7.4635 -4.39463,27.04065 -10.90461,31.05133 -2.81371,1.74376 -7.90505,1.49938 -11.17204,1.49938 0,0 -70.91447,0 -70.91447,0 -2.76694,0 -6.63816,0.23268 -9.05626,-1.1856 -2.9992,-1.77874 -5.44049,-7.2773 -6.85877,-10.43936 -5.23125,-11.67181 -6.12654,-23.6576 -3.35974,-36.03858 1.151,-5.13843 3.1156,-11.73008 5.74284,-16.27542 7.19608,-12.41595 24.00631,-23.15771 37.94512,-26.13394 z m -89.51512,40.15376 c 0,0 -30.2256,-17.13568 -30.2256,-17.13568 -5.87088,-3.03411 -26.57558,-14.72937 -31.38839,-15.42691 -3.7899,-0.54646 -5.75458,1.11616 -10.46285,0.82549 -2.31353,0.01 -5.53362,-0.97636 -7.69604,0 -5.4988,2.10412 -6.49854,10.45121 -3.47603,15.11298 2.76688,4.26629 14.39221,5.05708 19.30966,5.87059 0,0 44.17619,9.0678 44.17619,9.0678 5.56874,1.11608 14.55495,3.68526 19.76306,1.68573 z m 182.51752,1.16265 c 0,0 66.26439,-12.10213 66.26439,-12.10213 7.35884,-1.2438 19.51899,-0.75551 19.2632,-11.14868 -0.0456,-2.10407 -0.87195,-4.03388 -1.99961,-5.78935 -4.56867,-7.13807 -7.34716,-3.48751 -13.77594,-3.75493 -2.8017,-0.11615 -5.13836,-0.95346 -8.13788,-0.62765 -4.92905,0.53454 -13.68287,6.24276 -18.60019,8.71886 -9.56792,4.82441 -36.07349,18.39106 -43.01397,24.70388 z m -396.42337,9.30012 c 3.47604,-5.16172 16.12421,-20.1932 15.65941,-25.57562 -0.24417,-2.70881 -1.98795,-5.35937 -4.27813,-6.78924 -2.70866,-1.68579 -18.97269,-4.28965 -23.00635,-4.83604 0.77853,9.64893 5.41725,30.0049 11.62507,37.2009 z M 828.1634,416.7168 c -4.84791,0.63931 -20.56516,2.45296 -23.66909,5.32429 -2.1508,1.98793 -3.69702,5.70805 -3.17375,8.62609 0.99962,5.54527 11.88099,18.56568 16.38,22.08805 4.778,-8.6376 9.99775,-26.18022 10.46284,-36.03843 z m -524.30198,19.76301 c -3.61544,-5.31289 -6.80069,-5.06872 -12.78794,-6.27765 0,0 -25.57565,-4.5457 -25.57565,-4.5457 -2.58094,-0.38356 -10.84642,-2.89473 -12.41575,0 -1.98807,3.39465 5.55687,9.78872 7.76571,11.98579 2.38306,2.37146 6.01019,6.41709 9.30018,7.23095 2.65048,0.66268 7.69598,-1.12756 10.46279,-1.84842 z m 468.50033,-11.62535 c -15.72886,0.0455 -34.51562,5.02201 -49.98877,8.13772 0,0 0,4.65007 0,4.65007 0,0 22.08821,5.81268 22.08821,5.81268 2.89471,0.8603 7.61438,2.94113 10.46265,1.99953 2.97617,-0.98821 9.23063,-7.64939 11.60202,-10.13723 3.80166,-3.97593 4.95255,-5.01048 5.83589,-10.46277 z m -511.51396,24.41317 c -3.04575,-4.39443 -10.10232,-13.90381 -15.11282,-15.53142 -2.39494,-0.77898 -12.59047,0.32541 -14.76437,1.6043 -3.05736,1.79023 -14.02016,17.32185 -15.54311,20.90214 -0.80201,1.87176 -0.7904,2.74357 -1.08097,4.65017 z m 532.43963,-16.04299 c -8.07963,1.13922 -10.14894,-0.23246 -12.7414,0 -5.81267,1.27881 -13.63643,11.86951 -15.15924,17.20567 10.82291,2.03412 35.34078,10.20694 44.17607,9.30006 -2.1041,-8.60261 -11.17196,-19.15839 -16.27543,-26.50573 z m -376.66047,21.85567 c -4.35959,-2.87138 -15.45006,-5.08045 -20.92566,-6.30104 0,0 -39.52589,-8.10272 -39.52589,-8.10272 -3.99915,-0.74422 -20.43744,-6.0103 -17.83335,2.80167 1.15097,3.92932 12.70655,15.508 16.67061,16.50788 2.9647,0.74414 5.5339,-1.01129 9.30046,-0.59282 4.40597,0.48815 7.5099,3.45294 12.78779,3.60386 5.2547,0.15115 33.79472,-6.02189 39.52604,-7.91683 z m 272.03267,-17.43806 c 0,0 -56.96425,10.86969 -56.96425,10.86969 -6.87038,1.55759 -18.8328,2.88313 -24.41303,6.56837 0,0 26.73826,5.56847 26.73826,5.56847 0,0 13.9503,2.92971 13.9503,2.92971 6.01026,0.01 6.31245,-4.26665 15.11297,-3.56923 2.29039,0.0806 4.65028,0.77893 6.92861,0 4.32469,-1.20887 15.55469,-13.50839 17.50781,-17.71689 0.87179,-1.8832 0.83698,-2.73172 1.13933,-4.65012 z m -378.98544,8.13773 c -7.84726,-0.80208 -25.30833,4.61521 -32.5508,8.13772 3.66179,7.73085 10.59041,14.85722 19.73977,12.625 1.66234,-0.3951 3.7431,-0.95323 5.08013,-2.04593 3.23194,-2.65077 6.96349,-14.46179 7.7309,-18.71679 z m 439.43707,6.97525 c 0,0 -32.55095,-8.13765 -32.55095,-8.13765 0.22087,9.6722 2.75535,13.25278 5.81268,22.27419 8.23063,-1.20914 9.34675,1.16239 12.46229,0 3.39471,-0.87203 12.41577,-10.82339 14.27598,-14.13654 z M 316.6493,478.33096 c 0,0 19.76292,-4.348 19.76292,-4.348 2.82509,-0.53466 7.77722,-0.97637 9.71903,-3.27834 3.65014,-4.3245 -3.45287,-10.43945 -6.18487,-13.2877 -2.47613,-2.55756 -5.98703,-7.17274 -9.55583,-7.55634 -1.95316,-0.60462 -4.76666,-0.0217 -6.76627,0 -6.42868,1.11599 -6.98658,0.44176 -10.40455,9.86979 -0.82539,2.3017 -2.08082,5.69642 -1.81346,8.13776 0.3254,2.91787 3.67352,7.6843 5.24303,10.46283 z m 391.77327,-27.90065 c 0,0 -12.78778,-0.75565 -12.78778,-0.75565 -4.4062,0.90658 -9.66089,6.8121 -12.76471,10.05571 -2.2203,2.31353 -7.23097,7.2195 -4.66168,10.77682 1.38337,1.90647 5.90551,2.48774 8.1261,2.94111 0,0 22.08807,4.88266 22.08807,4.88266 0,0 5.20818,-10.46283 5.20818,-10.46283 z m -424.39384,39.52581 c -2.4995,-10.70663 1.95299,-11.2998 0,-16.27542 -1.63924,-3.83635 -13.29959,-15.31038 -17.36838,-16.20566 -3.03411,-0.66243 -11.72994,2.03466 -15.11282,2.87155 0,0 -33.71352,8.684 -33.71352,8.684 2.72039,9.17241 19.84435,20.80934 27.90096,26.33128 3.0573,2.10424 7.84691,5.68484 11.62509,5.70817 2.89476,0.01 6.66145,-2.16236 9.30029,-3.39468 z m 522.04658,-20.92553 c 0,0 -33.71356,-8.89335 -33.71356,-8.89335 -3.60375,-0.83697 -10.5441,-3.02242 -13.95026,-2.32493 -4.40607,0.90658 -15.6244,11.76476 -17.36829,15.86839 -1.7206,4.40591 1.74389,4.41782 0,15.1128 4.42923,2.59283 21.09987,11.98587 25.50617,11.85795 3.34783,-0.10344 8.67244,-3.98732 11.6252,-5.82424 8.98644,-5.5802 24.45953,-15.71746 27.90074,-25.79662 z M 323.62428,516.6945 c 0,0 11.05596,-1.29049 11.05596,-1.29049 1.8716,-1.11585 4.04554,-5.95211 5.23134,-8.00977 3.44119,-5.94061 14.61292,-19.08886 6.56817,-24.59917 -3.03416,-2.3135 -7.85863,-0.51148 -11.22999,0 -8.80045,1.99958 -20.64648,2.31319 -21.2279,14.1366 -0.19751,4.10358 7.40546,15.19403 9.60242,19.76283 z m 377.82334,0 c 4.88249,-12.78783 14.33389,-16.83352 6.50997,-27.57511 -2.02284,-2.77862 -4.52235,-3.17384 -7.67273,-3.9529 -6.52197,-1.59257 -22.82052,-6.94012 -25.15725,2.48799 -0.90672,3.63863 2.02293,7.49813 3.85971,10.43936 0,0 10.83474,18.60066 10.83474,18.60066 z M 414.30209,489.95612 c -5.83611,-1.09268 -30.58622,-6.11493 -34.87616,-5.3476 -4.62678,0.83686 -7.03323,5.06888 -11.62527,6.81243 0,0 -8.84692,1.52301 -8.84692,1.52301 -2.77834,1.29052 -5.56838,7.12629 -7.20759,9.80002 -2.12764,3.47611 -11.84625,16.70563 -8.7074,20.18149 3.30143,3.66215 14.29906,-3.03414 17.78674,-4.77799 11.11376,-5.55689 45.87357,-21.82062 53.4766,-28.19136 z m 196.46771,1.16276 c 0,0 51.15145,27.0286 51.15145,27.0286 3.58061,1.7905 15.29892,8.88202 18.56555,4.81313 3.97599,-4.95245 -6.44021,-18.22856 -9.26515,-22.54156 -1.54638,-2.34837 -3.68533,-6.26615 -6.25451,-7.47509 -2.08099,-0.9764 -5.2197,-0.44183 -8.85843,-2.1856 -3.89451,-1.8716 -6.27771,-5.34746 -10.46289,-6.20786 -2.91804,-0.59293 -8.53279,0.87172 -11.62522,1.42984 -6.10334,1.09291 -18.19372,2.55749 -23.2508,5.13854 z m -181.35498,4.65014 c -19.64673,5.85892 -37.5149,16.61264 -55.80133,25.73836 0,0 -25.26199,11.71813 -25.26199,11.71813 -2.99924,2.13935 -3.4063,4.95256 -5.55686,7.88205 -2.3948,3.2784 -5.49874,5.70816 -8.70734,8.13778 0,0 2.32492,8.13771 2.32492,8.13771 26.83138,-7.05663 55.16222,-20.50696 75.5646,-39.50276 6.1149,-5.68478 18.08917,-12.99713 17.438,-22.11127 z m 258.08231,61.61403 c 2.03429,-11.55564 -0.40712,-7.49817 -5.98715,-15.21762 -2.34833,-3.25513 -2.51114,-6.31252 -5.92895,-8.57934 0,0 -36.91025,-18.35626 -36.91025,-18.35626 -13.22969,-6.82435 -28.49394,-16.14771 -43.01392,-19.46081 0,0 -1.16249,1.16265 -1.16249,1.16265 2.76683,8.60253 13.99679,17.74006 20.92563,23.54113 20.15829,16.87999 46.28026,31.02769 72.07713,36.91025 z m -419.6741,-48.8262 c 0,0 17.43803,6.47517 17.43803,6.47517 0,0 17.43778,5.53364 17.43778,5.53364 2.90649,0.97671 9.48647,3.91773 11.97404,1.19734 3.31335,-3.62693 -7.98642,-19.32116 -9.21891,-20.19294 -2.09244,-1.45345 -5.9055,-1.0348 -8.56772,-1.60438 -2.77853,-0.58127 -5.47556,-2.10422 -8.13766,-2.20892 -5.15007,-0.17451 -18.18207,6.52171 -20.92556,10.80009 z m 488.26331,-2.32525 c -3.92924,-2.44125 -14.24092,-8.02145 -18.60051,-8.56777 -3.96419,-0.48816 -5.7661,1.2555 -9.30014,2.18551 -2.5691,0.67432 -5.53376,0.41856 -7.76588,1.75541 -5.28953,3.18531 -11.35793,16.01967 -11.99724,22.06497 7.83553,-0.70911 22.28564,-6.14973 30.22583,-8.90506 6.67291,-2.30175 12.27634,-3.38299 17.43794,-8.53306 z m -332.48401,79.05234 c 2.42959,-18.00777 10.66031,-41.24666 21.51842,-55.80144 7.23107,-9.68402 10.24186,-15.08988 22.6577,-15.11319 0,0 88.35236,0 88.35236,0 12.86933,0.022 15.60121,6.12668 22.73911,16.27554 13.27622,18.84466 16.91499,33.19017 22.59975,54.63909 z M 311.99909,532.96998 c -8.00988,-4.1039 -16.9264,-5.97554 -25.57562,-8.31204 -3.16222,-0.86043 -8.52133,-2.81344 -11.62554,-2.38335 -2.53416,0.36029 -8.97451,3.74344 -10.672,5.67336 -2.9411,3.35949 -4.94062,18.65847 -5.60324,23.62244 0,0 25.57577,5.11509 25.57577,5.11509 3.44098,-0.37184 6.56811,-3.11543 9.30031,-5.11509 7.03318,-5.16151 14.90361,-10.47432 18.60032,-18.60041 z m 453.38769,18.60041 c -0.61619,-4.54539 -3.32502,-20.76261 -5.73132,-23.8436 -1.95314,-2.48776 -8.55635,-5.48698 -11.70672,-5.53371 -2.59244,-0.0217 -8.76544,2.02277 -11.62535,2.77859 -8.25407,2.17405 -16.71722,4.24341 -24.41323,7.99831 2.45304,7.02163 12.63679,14.53161 18.6004,19.2398 2.91804,2.29031 5.44076,4.32467 9.30035,4.40594 z M 329.4371,550.40793 c 0,0 -12.7878,-4.74311 -12.7878,-4.74311 -5.01064,-0.0462 -14.43875,9.03278 -17.43804,12.88087 8.92843,2.53423 19.53047,0 29.06331,0 z m 396.42352,9.30019 c -3.08092,-4.28972 -10.88131,-13.06675 -16.27541,-13.95014 -2.74345,-0.45344 -16.12438,3.80126 -13.24136,10.11395 1.30199,2.84818 4.81294,2.56899 7.42866,2.85964 z m -526.62699,44.1762 c 0,0 10.96262,-24.413 10.96262,-24.413 0.75554,-5.0802 -3.51062,-7.55667 -2.5461,-13.9505 2.1275,-14.00848 23.739,-11.09064 21.53024,3.48753 -1.01143,6.63816 -6.04521,7.6263 -9.24226,11.86959 0,0 -13.75266,26.49393 -13.75266,26.49393 -0.77885,3.09254 -0.25582,5.06866 0,8.1377 0.69753,13.53187 3.87143,12.33451 13.97375,22.04167 2.73194,2.63907 9.33495,9.26533 12.79927,10.20695 2.73197,0.74412 7.04512,-0.7322 10.45112,-0.80205 0,0 9.30044,0.88355 9.30044,0.88355 5.13838,-0.72066 11.7647,-9.90471 15.32205,-13.7758 0,0 29.99342,-31.34206 29.99342,-31.34206 2.46455,-2.53422 7.88195,-9.99781 10.60222,-10.85799 5.15007,-1.63922 8.70747,4.60357 5.03369,8.59124 0,0 -9.75346,8.10252 -9.75346,8.10252 0,0 -29.31892,31.36523 -29.31892,31.36523 -12.00914,12.62505 -15.12461,11.57889 -10.25366,23.25062 0,0 48.82635,-8.13778 48.82635,-8.13778 0.43,-7.6146 3.06911,-13.11309 10.46254,-16.53107 4.5108,-1.69727 9.3354,-1.89511 13.95054,0 4.11542,1.20905 7.17281,4.35927 11.6254,2.4645 4.05725,-1.72038 25.57565,-20.54193 30.22571,-24.62228 2.66227,-2.34846 7.23108,-7.27763 10.43976,-8.2076 4.73132,-1.3833 8.31189,3.30156 4.15004,7.83561 0,0 -40.96752,33.95751 -40.96752,33.95751 -4.71999,5.19649 -0.86021,8.6724 -5.02223,15.56626 -4.90582,8.13771 -10.8462,7.12632 -13.34574,11.88103 -1.45326,2.76679 -2.62767,15.62436 -3.09238,19.50721 0,0 -4.27829,33.71348 -4.27829,33.71348 0,0 0,3.46436 0,3.46436 1.65089,12.32291 12.55537,-0.0217 16.07801,-3.45267 0,0 25.57556,-24.37836 25.57556,-24.37836 0,0 7.82388,-7.21916 7.82388,-7.21916 0,0 3.83647,-5.45245 3.83647,-5.45245 2.62713,-3.3597 7.42854,-4.92903 10.2185,-0.82547 5.06864,7.41706 -5.64984,10.17222 -12.57836,16.93816 0,0 -13.95051,12.83435 -13.95051,12.83435 0,0 -13.95038,13.70638 -13.95038,13.70638 -6.98688,6.32397 -11.62539,7.48658 -10.64879,17.63571 0.15099,1.5924 0.25567,4.13843 0.88358,5.56827 1.56914,3.59246 12.95054,9.37012 16.74028,11.637 3.46437,2.08084 9.9514,6.81256 13.95036,6.31263 0,0 9.30037,-3.3596 9.30037,-3.3596 9.46301,-1.8253 13.32269,4.0688 18.60051,1.94136 3.46438,-1.40668 12.1834,-9.88154 15.11304,-12.79965 0,0 20.92544,-19.76307 20.92544,-19.76307 0,0 8.82376,-9.30017 8.82376,-9.30017 4.01061,-2.511 9.39304,0.87188 7.84698,5.69642 -0.86043,2.70871 -8.40513,7.76577 -11.05581,10.13726 0,0 -26.54037,24.80838 -26.54037,24.80838 -3.05754,2.94119 -9.6956,7.83544 -10.90469,11.71838 -0.47656,1.81362 -0.1512,3.89455 0,5.76621 0.37198,9.02125 4.83623,9.92808 12.06716,14.4387 2.52272,1.58101 6.39373,4.46413 9.30026,4.73144 3.84791,0.46496 9.88155,-3.92927 17.41452,0 9.45153,4.82461 6.52206,13.32254 10.02112,17.2986 2.6274,2.98756 24.45983,14.02009 29.52832,16.84496 2.96452,1.6506 9.88163,6.27785 12.78783,6.66132 3.91775,0.5231 6.91715,-2.83656 13.95045,-4.17353 0,0 -0.81393,-43.01348 -0.81393,-43.01348 -0.29027,-3.84824 1.26729,-9.17273 6.37108,-7.3707 2.61548,0.91837 3.42935,3.65045 3.38277,6.17309 0,0 -1.8252,9.38179 -1.8252,9.38179 0,0 0,16.22883 0,16.22883 -0.12781,9.42814 -0.98817,16.35668 7.99807,21.21624 1.9183,1.03448 3.53417,2.04608 5.81278,1.89497 3.26668,-0.22109 18.15881,-9.46308 22.08799,-11.64875 5.04553,-2.80179 17.07766,-8.20727 20.56513,-11.90428 4.65023,-4.91747 1.51146,-11.78806 9.70736,-17.07747 7.91683,-4.92911 15.08961,-0.0221 18.55411,0 4.18485,-0.13964 17.76335,-9.06785 19.40249,-12.9042 0.84892,-1.96462 0.39551,-4.65018 0.7325,-6.77753 -0.11625,-2.13908 0.88343,-5.64999 0,-7.45192 -0.7325,-2.70882 -7.23103,-7.7191 -9.62569,-9.92782 0,0 -26.78478,-24.45969 -26.78478,-24.45969 -2.91784,-2.81346 -16.00805,-11.42768 -9.76553,-16.25226 3.60399,-2.79011 7.26601,0.94159 9.45158,3.47593 7.13786,8.28885 15.50828,15.49638 23.45992,23.01809 2.7318,2.58068 16.05471,14.93852 18.21685,15.69426 3.74338,1.31359 6.91717,-2.60433 14.43869,-2.60433 8.04458,0 10.66029,4.20851 15.11304,3.65038 2.31335,-0.27886 6.03342,-2.7202 8.13758,-3.91744 4.81273,-2.74358 18.65854,-9.96292 21.2975,-13.9854 1.802,-2.76666 0.8022,-6.06832 3.11576,-12.57863 -7.94023,-4.48733 -16.63606,-14.31061 -23.25066,-20.92559 0,0 -15.11311,-14.05504 -15.11311,-14.05504 -2.4761,-2.30182 -5.4173,-5.51025 -8.13765,-7.35889 -3.09236,-2.10411 -6.78924,-2.31334 -7.75418,-6.55656 -1.27864,-5.61487 3.52261,-9.62592 8.67255,-6.69624 3.22015,1.83704 4.13871,5.68485 8.49809,10.05588 0,0 8.02144,7.2195 8.02144,7.2195 0,0 19.76302,19.71653 19.76302,19.71653 3.08094,3.04578 11.35807,13.40391 16.14782,11.10209 4.16175,-1.9879 3.26653,-6.27764 2.76677,-9.9398 0,0 -3.65039,-26.73804 -3.65039,-26.73804 -0.68594,-4.95237 -2.48771,-23.09942 -4.77803,-26.23845 -2.697,-3.68512 -8.1609,-2.67375 -12.54359,-9.84655 -4.69664,-7.661 -0.16298,-11.42756 -5.18498,-17.05436 0,0 -40.04937,-33.08575 -40.04937,-33.08575 -4.67339,-5.69636 0.0458,-9.62571 4.09211,-8.33527 2.59265,0.82541 8.21897,7.28908 10.64885,9.49775 0,0 24.41315,20.6003 24.41315,20.6003 10.74173,8.32376 8.31208,-0.022 20.9255,-0.59293 6.96378,-0.31399 13.32278,0.7557 17.44978,6.97514 2.34826,3.55736 2.66226,7.9284 6.11494,10.05598 2.81314,1.72058 11.26484,2.44123 14.79894,2.8598 0,0 18.60061,3.31322 18.60061,3.31322 2.53422,0.37199 7.98662,1.74386 10.14873,0.79063 2.13912,-0.94175 4.67331,-5.68494 6.12646,-7.76591 0,0 -43.01348,-44.17604 -43.01348,-44.17604 0,0 -5.81271,-5.35939 -5.81271,-5.35939 -3.19688,-2.56932 -9.45147,-5.40577 -6.66127,-10.6373 4.69651,-8.83502 14.14809,5.94053 17.14718,9.02136 0,0 26.7152,27.90084 26.7152,27.90084 5.16147,5.1615 13.27625,12.09038 16.27549,18.60037 4.83592,-2.01096 7.48658,-2.60395 12.78794,-2.13911 3.53403,0.18623 7.07971,1.80205 10.46255,0 2.24368,-1.08103 9.03289,-7.90488 11.62535,-10.16043 2.66218,-2.3135 11.2997,-9.69545 12.79957,-12.439 0.77883,-2.19715 0.046,-5.31291 0,-7.81232 0.45329,-2.6971 1.55788,-5.47541 1.18575,-8.13784 -0.41853,-3.05732 -3.4179,-7.56786 -4.94078,-10.46256 0,0 -8.12616,-16.15935 -8.12616,-16.15935 -3.35982,-5.21979 -8.88168,-5.95218 -9.93967,-12.90408 -2.49934,-16.54275 24.08766,-16.9729 21.53027,0 -0.61615,4.1038 -2.91819,6.33589 -5.53386,9.30035 4.38278,4.3944 11.70684,19.44914 13.95043,25.84283 4.98739,-1.16228 9.13757,-2.20847 13.92726,0 8.64924,4.72002 10.57885,16.64784 4.02223,23.75072 -6.95198,7.54471 -15.14777,3.06899 -19.11197,4.24325 -3.25507,0.95326 -7.91678,5.45227 -10.46269,7.77733 -3.22029,2.94104 -12.52055,10.69513 -14.26435,13.62498 -2.9298,3.87116 -0.12796,4.78972 0,11.95079 0.90687,11.69512 -3.96429,19.79795 -15.96149,22.08815 0,0 2.12743,33.71319 2.12743,33.71319 0,0 2.02283,19.7515 2.02283,19.7515 2.41795,8.17277 12.55528,8.91667 13.24099,22.09974 1.10459,21.16971 -21.36721,25.41303 -32.29491,16.68252 -4.61543,-3.68532 -6.30114,-8.76565 -7.18444,-14.35731 0,0 -38.36364,-5.8129 -38.36364,-5.8129 -4.47574,10.32355 -10.92775,17.63594 -23.25059,14.27602 -6.07996,-1.65068 -7.76577,-5.28943 -12.78789,-3.83627 0,0 -29.06335,16.29886 -29.06335,16.29886 0.46498,2.62711 1.16246,5.46373 0.87176,8.13766 -0.97638,9.13748 -9.09083,16.76367 -18.30966,16.76367 -9.33535,0.01 -10.54422,-5.56867 -18.60049,-1.20915 -3.90619,2.10421 -13.05537,7.57967 -15.08967,11.28825 -2.29018,4.17354 0.0809,11.16026 -8.18426,16.47297 -8.34712,5.37091 -16.94989,-1.27866 -20.90243,-0.79047 -2.75499,0.32561 -10.09075,4.9292 -12.78794,6.53344 0,0 -19.7629,10.59081 -19.7629,10.59081 -2.976,1.639 -8.81209,4.89411 -10.24197,7.98652 -1.34853,2.94118 0.37214,5.69635 -0.82536,11.41588 -2.18572,10.46299 -9.33506,17.92654 -20.32107,18.48441 -11.67171,0.58132 -20.49551,-6.9521 -22.19272,-18.48441 -0.75553,-5.13833 1.76709,-10.40464 -2.48794,-14.38029 0,0 -28.7957,-16.6593 -28.7957,-16.6593 -2.55774,-1.39481 -9.12605,-5.32421 -11.62538,-5.59169 -4.42909,-0.47678 -6.98677,3.48771 -15.11294,2.79007 -6.21966,-0.53475 -10.76493,-4.21985 -12.29955,-10.33486 -0.76741,-3.04584 -0.10367,-6.33572 -1.67409,-9.1841 -1.63896,-2.96445 -11.83468,-9.70707 -15.0899,-11.28809 -5.89379,-2.83655 -7.38201,-0.12804 -12.78748,1.23224 -4.54569,1.12777 -10.89293,0.83716 -15.10137,-1.32515 -14.46205,-7.42872 -4.49915,-18.84479 -14.03177,-25.65713 -3.51085,-2.4995 -20.91408,-12.8578 -24.3435,-12.91595 -5.03382,-0.0921 -9.40485,5.91753 -19.76298,3.95282 -4.87102,-0.91871 -7.83552,-2.60436 -10.98608,-6.47531 -1.99941,-2.46461 -3.30155,-6.12658 -6.60303,-7.0683 -2.51099,-0.70904 -10.95114,0.75557 -13.79926,1.30225 0,0 -23.2506,3.4875 -23.2506,3.4875 -2.51109,26.93573 -41.02597,23.39009 -39.42143,-2.32521 0.33712,-5.25446 1.97615,-9.85812 5.9289,-13.49682 2.45292,-2.26715 5.88227,-3.4297 7.2193,-6.5104 1.18577,-2.7085 1.74369,-16.98434 1.90656,-20.68148 0,0 2.20895,-29.03986 2.20895,-29.03986 -0.65117,-7.47525 -5.25484,-6.12661 -10.04455,-10.07906 -4.26651,-3.51113 -6.64966,-8.9167 -7.10305,-14.3574 -0.55801,-6.55674 2.31357,-10.45122 1.38365,-13.95049 -0.82549,-3.12707 -3.94111,-5.42895 -6.25462,-7.46334 -4.01069,-3.53415 -13.56665,-13.63657 -17.4381,-15.25252 -3.74329,-1.68568 -5.74278,-0.11615 -9.30016,0 -6.01033,0.33709 -11.86931,-2.96441 -14.0782,-8.67257 -3.29013,-8.53283 1.33685,-18.73981 10.59052,-20.51843 3.52261,-0.68609 6.99847,0.13951 10.46299,0.75551 z m 206.90742,-38.30543 c 2.3946,0.40711 3.62704,0.36051 3.69677,3.4993 0.0456,2.23211 -1.80197,5.87076 -2.58067,8.06813 -2.23229,6.28911 -1.69757,13.58977 -7.03353,15.55454 -4.84762,1.79016 -10.27675,-2.53443 -8.41657,-9.7421 1.61586,-6.23109 8.54453,-14.81054 14.334,-17.37987 z M 615.42,564.35838 c 8.04478,2.74354 19.68156,14.89187 16.93821,24.28506 -1.6276,5.56869 -9.04449,6.11506 -11.78827,1.11628 0,0 -3.60383,-13.77615 -3.60383,-13.77615 -1.59262,-4.96389 -2.58078,-6.31246 -1.54611,-11.62519 z m -196.46779,43.01349 c 0,0 186.00507,0 186.00507,0 0,19.30968 0.43017,22.39045 -3.73175,41.85117 -3.33662,15.56627 -3.95248,17.41493 -14.86887,17.43809 0,0 -158.10444,0 -158.10444,0 0,0 -4.77789,-17.43809 -4.77789,-17.43809 -3.72003,-14.90368 -4.52212,-26.65687 -4.52212,-41.85117 z m 150.02474,26.31978 c -9.32361,5.40593 -3.66218,14.25278 3.3827,12.55536 7.68453,-1.86009 7.54507,-13.76439 -3.3827,-12.55536 z m -261.62803,29.81901 c 0,0 -29.06324,4.22007 -29.06324,4.22007 -2.76677,0.45318 -10.16063,1.56933 -12.31122,2.88288 -3.40616,2.1042 -3.19702,6.21966 -7.69612,11.04418 -3.89435,4.1618 -7.53287,4.70822 -9.2071,8.49811 -1.53457,3.45282 -0.80203,11.74135 -1.20889,16.03141 0,0 -3.0343,34.748 -3.0343,34.748 0.32539,3.56906 3.3364,5.2313 6.71948,5.03385 5.48709,-0.31401 13.29926,-12.2067 16.74049,-16.53152 0,0 32.63221,-43.01354 32.63221,-43.01354 2.52274,-3.37127 12.20656,-15.47323 13.04371,-18.5423 1.3485,-4.98727 -3.39468,-4.58036 -6.61502,-4.37114 z m 452.2251,6.63791 c 0,0 -49.98881,-6.97512 -49.98881,-6.97512 0.67411,9.37004 7.96318,16.03133 13.40386,23.25065 0,0 33.79474,44.17622 33.79474,44.17622 3.88296,4.8478 13.26449,20.48404 20.80954,13.84567 2.70856,-2.47603 0.61601,-16.79841 0,-20.82065 0,0 -3.55735,-34.4343 -3.55735,-34.4343 -1.29055,-2.66225 -4.98741,-4.46428 -7.27754,-6.63821 -3.80157,-3.61515 -5.74296,-7.45172 -7.18444,-12.40426 z m -432.46192,4.6503 c 0,0 -6.97524,-2.3251 -6.97524,-2.3251 0,0 -14.08998,18.60074 -14.08998,18.60074 0,0 -31.09755,40.6885 -31.09755,40.6885 0,0 -11.04422,13.95045 -11.04422,13.95045 -1.69724,2.19699 -4.0803,5.08011 -3.35959,8.06793 1.01147,4.18494 5.10352,4.03378 8.43997,3.53403 0,0 23.2508,-3.94098 23.2508,-3.94098 3.21994,-0.52332 8.35854,-0.72095 10.83468,-2.80165 1.92983,-1.62778 2.66208,-4.41775 6.6613,-7.96364 3.38299,-2.99916 7.85871,-4.46388 9.37003,-7.67267 0.98791,-2.09232 2.04609,-15.07796 2.38307,-18.28648 z m 378.9854,62.77643 c 15.57813,4.04583 10.04432,13.39257 22.08819,15.42705 0,0 24.41316,3.92941 24.41316,3.92941 3.09228,0.94168 6.89392,2.25531 9.5096,0 5.62646,-5.67325 -3.79,-13.96213 -7.18461,-18.19377 0,0 -36.79422,-47.66348 -36.79422,-47.66348 -2.77835,-3.58079 -11.81127,-16.8336 -15.62426,-17.58921 -2.0344,-0.40697 -3.89467,0.60447 -5.70816,1.31357 0,0 6.13825,43.01362 6.13825,43.01362 z M 438.71518,688.74901 c 0,0 146.47881,0 146.47881,0 -1.19722,8.71921 -8.11433,18.33349 -13.00858,25.57589 -11.98575,17.70555 -24.30856,32.38818 -39.2585,47.65215 0,0 -13.99708,13.91554 -13.99708,13.91554 -2.13918,1.97641 -4.90562,4.90602 -8.13765,4.17337 -2.36001,-0.53453 -5.26635,-3.62691 -6.97511,-5.3009 0,0 -13.90407,-13.93878 -13.90407,-13.93878 -11.92766,-12.46256 -26.80795,-31.00501 -36.46867,-45.3387 -4.95236,-7.33576 -12.10179,-18.39151 -14.72915,-26.73857 z m 84.88795,27.36625 c -10.20695,3.87125 -4.84777,14.68288 2.25533,13.48538 6.90545,-1.16255 8.92825,-13.18334 -2.25533,-13.48538 z"
     style="display:none;fill:#f7ac4c;fill-opacity:1;stroke-width:7.0866;stroke-dasharray:none;paint-order:markers stroke fill"
     inkscape:label="neural_bee" /><path
     id="Selection #1"
     fill="none"
     stroke="#000000"
     stroke-width="1.16757"
     d="m 358.49359,324.86986 v 40.69036 c 0,1.88338 0.16276,6.02217 -0.66267,7.61491 -1.49972,2.90645 -5.11536,2.29028 -6.61508,-0.90681 -1.02307,-2.16241 -0.86031,-6.58022 -0.86031,-9.03327 V 335.3331 c 0,-2.81345 0.24414,-6.56859 -1.18584,-9.05652 -1.94151,-3.38311 -5.83615,-4.12716 -8.10319,-9.56805 -2.44143,-5.83615 0.13951,-11.09103 -1.38348,-15.0903 -1.31371,-3.47612 -12.12573,-15.14844 -15.22981,-18.58969 -2.17403,-2.40654 -4.49919,-5.08048 -7.81255,-5.77802 -2.76694,-0.59292 -6.7546,0.94169 -10.46323,0.62779 -3.89466,0.24415 -6.38258,-1.25559 -9.30066,0 -3.56912,0.93006 -10.92827,9.05651 -13.62546,12.1141 l -22.20531,23.147 -12.28849,14.83454 c -4.34805,2.34842 -9.28903,-1.77875 -7.87067,-6.47557 0.7673,-2.49956 10.39348,-10.33536 12.97441,-12.90466 l 21.0311,-22.08906 10.82364,-11.30029 c 5.83616,-6.95224 0.70917,-9.90519 0,-17.76424 -0.65105,-5.90592 2.54605,-13.02092 6.85923,-16.98532 5.55713,-5.10374 16.00874,-6.55697 22.90285,-3.67376 7.01037,2.91808 7.63816,7.8358 15.11357,4.66195 l 31.0293,-16.12501 c 3.52262,-3.37148 2.06939,-6.61508 3.85977,-10.87013 2.62743,-6.27794 8.64961,-8.62636 15.10194,-8.03344 5.95242,0.55803 7.12662,3.45287 10.78875,2.96458 2.66231,-0.34877 13.95098,-6.89411 17.11321,-8.5566 l 33.71486,-16.91556 31.38971,-16.18314 c 3.38311,-1.77875 12.40475,-6.23144 14.70665,-8.64961 3.29011,-3.45287 1.02308,-5.68503 2.99947,-12.07922 3.45287,-11.20729 11.69557,-15.64835 22.98424,-15.06706 9.10301,0.47666 16.20638,6.37095 18.83382,15.06706 1.3486,4.46431 0.12788,8.69611 3.61563,12.33499 2.46467,2.5693 10.07958,5.89429 13.59058,7.78929 l 32.55229,16.78769 34.87745,17.75262 13.95098,6.97548 c 6.01055,1.77875 11.80021,-5.39437 20.90323,-0.82543 9.16114,4.60383 6.20818,13.10229 10.84688,17.50848 2.23216,2.10428 8.27759,4.5922 11.26542,6.0803 l 18.60131,9.45179 c 9.25415,4.20855 6.81273,-1.4881 17.43872,-4.41781 13.9626,-3.85977 26.23946,3.96441 27.51831,18.68269 0.6278,7.14988 -3.31336,11.82346 -1.74387,15.93899 0.93006,2.46468 9.25415,10.85852 11.42817,13.12556 l 24.41421,25.57679 c 2.3368,2.32516 11.10266,9.48666 11.81184,11.76533 1.51136,4.91772 -4.16205,9.41691 -8.84725,5.85941 l -7.74279,-10.64925 -27.77407,-29.06454 c -2.19729,-2.23216 -8.42872,-9.55642 -10.83527,-10.43998 -3.05758,-1.10446 -7.17313,0.74404 -11.25379,0.74404 -2.90645,0 -6.84761,-1.24396 -9.30066,-0.72079 -3.35986,0.70917 -5.47575,3.3366 -7.64978,5.77802 -3.65051,4.11555 -15.11356,16.31103 -16.43891,20.91485 -0.74404,3.40636 1.04633,6.06868 0,10.46324 -2.10427,7.32426 -8.11482,8.84724 -10.0912,13.99748 -1.20909,3.15059 -0.75568,26.32084 -0.69755,31.3432 0.0349,2.74369 2.83669,17.97351 -4.33643,14.64853 -2.96459,-1.37185 -2.61581,-6.12681 -2.63906,-8.83562 v -20.92647 -19.76389 c -15.28795,-2.92971 -15.7181,-19.35699 -7.98693,-26.41386 6.8941,-6.28956 13.93935,-2.2089 18.45016,-4.03416 3.49937,-1.41834 8.59148,-7.30101 11.13754,-10.24233 2.55768,-2.95297 10.41673,-10.61438 10.38185,-14.27651 l -2.53443,-8.97513 c -0.48829,-2.75532 -0.10463,-6.54534 -1.56949,-8.84725 -1.47648,-2.31353 -5.69664,-4.22016 -8.11481,-5.59201 -4.82472,-2.73207 -23.42602,-13.04417 -27.90197,-13.13718 -5.06885,-0.11625 -10.25396,5.40601 -18.6013,1.49973 -10.59112,-4.96422 -6.24306,-13.88123 -12.95116,-19.14772 l -25.41404,-13.1953 -43.01553,-22.08906 -17.43872,-8.75423 c -2.25541,-1.18583 -6.9755,-4.16204 -9.25415,-4.41781 -5.06886,-0.56966 -4.9526,4.53406 -15.16007,6.48721 l -1.16258,13.95098 v 19.76389 c 0.0232,10.78875 1.42998,9.60292 1.76712,13.95097 0.29065,3.76676 -2.04614,7.67304 -6.26631,6.20819 -5.51064,-1.90663 -2.53443,-11.99785 -2.4763,-16.67142 v -37.20261 c -10.68413,-1.23234 -10.85851,-7.70792 -16.47378,-6.19656 l -10.2656,5.313 -24.41421,12.57912 -58.07096,30.11087 c -8.5566,6.06868 -3.61563,14.31138 -12.95116,18.85708 -9.45179,4.61544 -15.09031,-1.44161 -19.65925,-1.15096 -2.61581,0.16276 -6.82435,2.87158 -9.30065,4.11553 l -19.76389,10.10284 c -2.31354,1.31372 -6.6616,3.49937 -7.96369,5.77804 -0.96494,1.68574 -1.01144,5.55713 -1.3951,7.68466 -0.48828,2.65069 -2.10427,6.90574 -1.73224,9.30065 0.59292,3.89465 7.45215,10.66088 10.21909,13.95099 2.45305,2.94132 6.78948,8.83561 10.18422,10.24233 4.48756,1.86014 12.04434,-2.18565 18.46179,3.04597 9.71918,7.90555 7.25451,24.40259 -6.84761,27.40205 z m 150.67059,-85.99617 c 8.8705,-3.40636 10.30048,6.73135 4.95259,8.80074 -4.1504,1.60437 -8.71936,-3.41799 -4.95259,-8.80074 z m -33.24984,88.32133 c -4.52244,-10.48649 -10.59111,-20.33355 -17.95026,-29.06454 -1.91826,-2.27866 -6.56858,-7.78929 -9.27739,-8.70773 -2.39493,-0.81381 -5.19674,0.68591 -8.81238,0.86031 -4.53407,0.20926 -10.21909,-1.59274 -13.70683,-4.52245 -14.8578,-12.46287 -1.25559,-39.9463 19.51974,-30.68053 11.12591,4.9526 10.05633,14.83454 12.76515,19.79877 2.05776,3.75514 6.17331,6.81273 9.1844,9.89357 4.30155,4.39455 10.0447,11.71882 13.48594,16.84581 l 9.31228,15.40421 c 2.24379,1.5346 5.12699,0.48828 7.56841,0 7.03362,-1.27885 9.10301,-1.53461 16.27614,-1.45323 l 19.28723,2.09264 c 2.54605,-1.29046 8.16132,-14.96242 10.18422,-18.36879 6.11518,-10.3121 16.45053,-18.2409 19.86852,-23.25163 4.54569,-6.67322 3.5575,-21.17061 20.41492,-22.04254 13.61385,-0.69756 23.25165,9.7773 19.40351,23.20513 -2.23216,7.78929 -9.12627,12.47449 -17.07834,12.70701 -5.55713,0.18601 -8.05669,-1.69737 -11.62581,0 -2.96459,1.3951 -6.48721,5.66177 -8.59148,8.21945 -4.4527,5.40601 -12.18386,15.71811 -14.75316,22.08905 -0.76731,1.90664 -1.33697,3.66214 -0.68593,5.70828 1.22071,3.76676 9.01001,8.62636 14.78804,19.86852 9.97495,19.41511 5.05723,44.10835 -12.84653,56.9665 -15.59022,-12.40474 -33.70324,-18.42691 -53.47875,-13.52083 -7.71955,1.91826 -12.90466,3.6854 -19.76389,7.91718 -3.19711,1.96477 -6.4872,5.55715 -10.41673,3.58076 -3.90627,-1.97639 -8.84725,-10.26559 -10.75388,-14.25325 -9.66106,-20.13591 -3.53425,-49.17721 17.68286,-59.29167 z m -96.49428,145.32271 c 4.88285,4.88284 8.69611,4.15041 15.11357,4.83634 l 22.08904,2.12753 21.8333,-3.03435 c 1.54623,0.32553 2.23215,0.93007 3.09246,2.22054 1.60436,2.38329 8.28921,20.60095 7.89392,22.91448 -0.60453,3.49937 -4.88283,7.94044 -7.28938,10.46323 l -18.56642,18.78733 c -23.62367,21.60076 -54.15306,38.35357 -86.01942,43.48056 l -22.08906,1.77875 -9.30064,1.01144 c -5.30139,0.20926 -6.85924,-0.46504 -11.62583,-0.91844 -14.83454,-1.41835 -23.84454,-2.4763 -38.36519,-6.84761 -5.90591,-1.77875 -14.21838,-3.77839 -15.6716,-10.78876 -0.79055,-3.82489 3.66213,-24.10032 4.76658,-29.06453 0.99982,-4.2318 3.03435,-8.63799 0,-12.41638 l -25.13501,-18.51992 c -2.84832,-2.34842 -8.57985,-8.17296 -11.62581,-9.11465 -3.24361,-0.99982 -6.6616,0.96494 -10.46325,1.23234 -5.16186,0.37203 -10.97476,-1.95314 -14.49738,-5.74315 -5.51065,-5.92917 -6.90574,-15.77623 -2.83671,-22.86798 2.89484,-5.05723 6.95224,-6.45233 7.05688,-10.56787 l -6.67322,-21.98442 c -2.59256,-9.46341 -7.34752,-34.73794 -7.46378,-44.1781 -0.0349,-3.41799 0.41854,-8.52173 -1.18583,-11.52119 -1.60436,-2.99946 -4.80147,-4.7317 -7.35915,-8.2892 -4.89446,-6.77786 -5.05723,-17.83401 0.73243,-24.14682 5.89429,-6.45234 17.6945,-8.0567 25.20477,-3.60401 4.41781,2.61581 5.5339,6.33607 10.52136,7.67304 l 37.191,5.7664 26.73937,6.56859 h 6.9755 c 12.03271,-0.87193 13.2883,4.2318 19.76388,6.97549 l 19.76389,5.97567 24.41422,10.20747 c 7.55677,2.62744 12.07922,-2.58093 19.74063,1.26721 7.40565,3.72026 5.0456,8.8705 11.71882,13.18367 l 33.64512,17.04345 43.01552,25.2164 -4.84797,21.42638 -16.0785,4.15042 z m 203.4518,-11.62582 -1.58112,-21.87978 c 1.45323,-3.95278 10.64926,-8.67286 14.36953,-10.90502 l 44.1781,-24.47234 c 4.19692,-2.09265 14.22999,-6.71973 17.28759,-9.46342 4.87122,-4.35968 4.48756,-9.04489 11.77696,-12.23035 7.37076,-3.22036 11.21891,1.31371 18.6013,-1.06958 l 25.5768,-10.16096 19.65924,-6.13843 c 4.25505,-1.89502 5.41764,-4.59221 10.56788,-6.49884 6.02217,-1.61599 10.80038,0.22089 15.11356,0 l 24.41421,-6.46395 39.51615,-6.47558 c 5.24324,-1.59274 6.19656,-4.83634 10.52136,-7.37077 7.7893,-4.58057 20.2173,-2.75532 25.70469,4.66195 4.92935,6.67322 5.61527,16.02038 0.82543,22.93774 -2.65069,3.82489 -6.4872,5.37113 -7.7893,9.60293 l -2.83669,26.63474 c -1.92989,14.323 -7.90556,39.28363 -13.62546,52.31617 12.27686,7.61491 14.61365,24.2282 2.30191,33.12195 -8.21945,5.94079 -17.834,0.74405 -22.0658,2.15078 -2.45305,0.82544 -10.14934,7.73117 -12.7884,9.83544 l -24.15845,17.39222 c -3.54587,3.7784 -1.18583,8.56823 0,13.06743 1.3021,5.99892 6.20819,26.35572 3.92953,31.27344 -1.27884,2.74369 -3.8714,4.28993 -6.51046,5.52226 -12.55588,5.83616 -33.773,8.78912 -47.66585,9.8122 l -9.30065,0.96494 -18.6013,-1.06959 c -28.48325,-0.33714 -57.2339,-13.97423 -80.21814,-29.83184 -13.35806,-9.20765 -24.75137,-19.53137 -35.36575,-31.78498 -2.91807,-3.35986 -9.75405,-9.57967 -9.99819,-13.95098 l 8.16132,-24.41421 26.73939,3.47612 36.04003,-4.63871 v -2.32516 c -16.72956,-3.1506 -46.75903,-11.27704 -62.77942,-11.62582 z m -52.30456,-113.933 c -8.53334,1.97639 -5.42925,10.12609 0,10.12609 5.63853,0 8.56823,-7.8823 0,-10.12609 z m -331.34739,16.27614 c 4.75496,9.23091 14.02073,18.75245 20.92647,26.73938 5.3595,6.20819 6.47557,9.94008 15.11356,9.66105 2.51117,-0.093 7.31264,0.60455 9.19602,0 3.53425,-1.13932 13.52083,-12.89303 14.36951,-16.64816 0.46503,-2.05777 -0.11625,-5.95242 -1.12771,-7.7893 -1.95313,-3.54587 -10.50973,-4.41781 -14.29975,-5.23162 -14.6369,-3.16222 -29.14592,-6.73135 -44.1781,-6.73135 z m 625.46894,0 c -10.719,0 -14.03235,0.81381 -24.41421,2.61581 l -23.25163,4.78984 c -2.83671,0.70918 -7.49866,1.49973 -9.47504,3.70864 -6.0338,6.7546 1.01144,14.03235 5.30137,19.11284 2.06939,2.42979 4.51081,5.88266 7.85905,6.4407 l 5.61527,-0.61617 c 2.63906,0.093 5.7199,0.74406 8.13807,0 4.13879,-1.91825 14.26487,-14.5904 17.76425,-18.61293 4.6852,-5.39438 10.42836,-10.43999 12.46287,-17.43873 z m -634.76959,8.13808 c 0,13.74171 -0.20927,11.8467 1.83687,25.57679 0.43016,2.89484 0.61617,7.44053 2.60419,9.64943 2.34841,2.60418 8.45197,3.38311 11.83508,3.99928 4.34806,0.95332 11.93972,4.05742 15.09031,0 3.53424,-4.6852 -0.26739,-8.917 -3.18547,-12.48612 L 201.56832,379.5112 c -4.37131,-4.66195 -5.17349,-7.0685 -11.64906,-8.13807 z m 644.07025,0 -4.16204,1.15095 -20.19405,22.10068 -7.26614,10.46324 2.55768,8.13807 25.5768,-4.65033 c 2.45305,-13.62546 3.48775,-23.35626 3.48775,-37.20261 z M 290.16867,383.743 c -7.27776,5.19674 1.82525,12.09085 5.88267,16.3924 3.56912,3.79001 11.5328,14.40439 15.98549,15.84598 2.97621,0.95332 6.23144,-0.37202 9.25415,-0.94169 1.65087,0.10463 4.08067,0.30227 5.56877,0 3.85977,-1.73224 10.40511,-12.04434 4.53407,-17.14808 -1.79038,-1.55786 -7.68467,-3.91789 -10.10284,-4.89446 -7.32426,-2.95296 -23.82129,-10.32373 -31.12231,-9.25415 z m 441.46715,-0.19764 -27.85546,9.24252 c -2.69719,1.0347 -9.07977,3.37149 -10.96315,5.28974 -4.28992,4.35969 0.12789,13.62546 4.52244,16.32265 1.72062,1.04633 11.37006,2.0694 13.4162,1.7555 3.82489,-0.59291 6.67322,-3.83652 9.30066,-6.41745 l 15.8111,-17.43872 c 3.02272,-4.76659 0.88357,-7.96368 -4.23179,-8.75424 z M 305.01484,423.6893 c -2.77857,-7.09175 -12.69539,-16.7993 -18.12465,-23.25163 -2.58093,-3.06921 -6.01055,-7.8358 -9.97495,-8.9635 -1.67411,-0.47667 -8.67285,-1.04633 -10.26559,-0.60455 -5.84779,1.59274 -15.47397,12.48613 -14.137,18.8687 1.62761,7.67304 6.68484,6.92899 12.97441,8.13807 12.45125,2.39492 27.00678,5.80128 39.52778,5.81291 z m 415.04167,1.16258 36.04003,-6.74297 c 3.9644,-0.7673 11.3933,-1.11608 13.85797,-4.22017 1.37184,-1.73225 2.60419,-5.42926 2.29028,-7.63816 -0.68592,-4.77822 -10.13771,-15.02055 -14.98567,-15.70648 -11.75371,-1.67412 -20.10104,11.93972 -26.84401,19.19422 -5.13861,5.53389 -8.71936,7.40565 -10.3586,15.11356 z M 510.7918,403.29762 c 32.62203,-1.65086 58.83825,26.91377 58.11745,58.75688 -0.17438,7.46377 -4.39456,27.04165 -10.90502,31.05255 -2.81344,1.74388 -7.90555,1.49973 -11.17241,1.49973 h -70.91748 c -2.76694,0 -6.63834,0.23252 -9.0565,-1.18583 -2.99947,-1.77875 -5.44089,-7.27777 -6.85924,-10.43998 -5.23161,-11.67233 -6.1268,-23.65854 -3.35986,-36.04004 1.15095,-5.13861 3.11571,-11.73045 5.74315,-16.27614 7.19639,-12.41637 24.00731,-23.15863 37.94666,-26.13483 z m -89.51879,40.15557 -30.22713,-17.13646 c -5.87104,-3.03433 -26.57661,-14.7299 -31.3897,-15.42746 -3.79002,-0.5464 -5.75478,1.11609 -10.46324,0.82544 -2.31353,0.0116 -5.53389,-0.97657 -7.69629,0 -5.49901,2.10428 -6.49883,10.45161 -3.47612,15.11356 2.76695,4.26668 14.39276,5.05724 19.31049,5.87104 l 44.1781,9.06814 c 5.56876,1.11607 14.55552,3.68538 19.76389,1.68574 z m 182.52533,1.16258 66.26715,-12.10248 c 7.35914,-1.24396 19.51975,-0.75568 19.26398,-11.14916 -0.0465,-2.10426 -0.87194,-4.03415 -1.99964,-5.78965 -4.56894,-7.13825 -7.34752,-3.48774 -13.77659,-3.75514 -2.80182,-0.11626 -5.13861,-0.95332 -8.13807,-0.62779 -4.92935,0.53478 -13.68359,6.24306 -18.60131,8.71936 -9.56805,4.82471 -36.07491,18.39204 -43.01552,24.70486 z m -396.44036,9.30065 c 3.47612,-5.16186 16.12501,-20.19404 15.65997,-25.57679 -0.24414,-2.70882 -1.98801,-5.35951 -4.2783,-6.78948 -2.70881,-1.68574 -18.97333,-4.28992 -23.00748,-4.83634 0.77893,9.64943 5.41762,30.00624 11.62581,37.20261 z M 828.1766,416.71381 c -4.84797,0.63942 -20.56607,2.45305 -23.67016,5.32462 -2.15078,1.98802 -3.69702,5.70828 -3.17385,8.62636 0.99982,5.54552 11.88159,18.56643 16.38077,22.08906 4.77821,-8.63799 9.9982,-26.18135 10.46324,-36.04004 z M 303.85226,436.4777 c -3.61563,-5.313 -6.8011,-5.06886 -12.7884,-6.27794 l -25.5768,-4.5457 c -2.58093,-0.38365 -10.84688,-2.89482 -12.41637,0 -1.98801,3.39474 5.55715,9.78894 7.76605,11.98622 2.38329,2.37167 6.01054,6.41745 9.30065,7.23126 2.65069,0.66267 7.69629,-1.12771 10.46324,-1.8485 z m 468.52041,-11.62582 c -15.72972,0.0465 -34.51705,5.02235 -49.99101,8.13808 v 4.65032 l 22.08906,5.81291 c 2.89482,0.86031 7.61491,2.94133 10.46323,1.99964 2.97622,-0.9882 9.2309,-7.64979 11.60257,-10.13771 3.80164,-3.97603 4.95259,-5.01073 5.83615,-10.46324 z M 260.83674,449.2661 c -3.04596,-4.39456 -10.10284,-13.90448 -15.11356,-15.53209 -2.39492,-0.77893 -12.59076,0.32552 -14.76479,1.60436 -3.05759,1.79038 -14.02074,17.32247 -15.54371,20.90322 -0.80219,1.87175 -0.79056,2.74369 -1.08121,4.65032 z m 532.46241,-16.04363 c -8.07995,1.13933 -10.14934,-0.23251 -12.7419,0 -5.81291,1.27884 -13.63708,11.86996 -15.16006,17.20621 10.82364,2.03451 35.34248,10.20747 44.1781,9.30065 -2.10427,-8.6031 -11.17241,-19.15934 -16.27614,-26.50686 z M 416.62267,455.079 c -4.35968,-2.87157 -15.4507,-5.08047 -20.92646,-6.30119 l -39.52778,-8.10319 c -3.99928,-0.74405 -20.43818,-6.01055 -17.834,2.80182 1.15095,3.92953 12.70702,15.50884 16.67142,16.50866 2.96459,0.74405 5.53389,-1.01145 9.30066,-0.59292 4.40618,0.48829 7.51028,3.45287 12.7884,3.60401 5.25486,0.15113 33.79624,-6.02217 39.52776,-7.91719 z m 272.04412,-17.43872 -56.9665,10.87014 c -6.87085,1.55786 -18.83381,2.8832 -24.41421,6.56858 l 26.73938,5.56877 13.95098,2.9297 c 6.01055,0.0116 6.31282,-4.26667 15.11356,-3.56912 2.29028,0.0813 4.65033,0.77893 6.92899,0 4.3248,-1.20908 15.55534,-13.50919 17.50848,-17.71774 0.87193,-1.88339 0.83706,-2.73206 1.13932,-4.65033 z m -379.00162,8.13808 c -7.84743,-0.80219 -25.30941,4.61544 -32.55229,8.13806 3.66213,7.73117 10.59112,14.85779 19.74064,12.62564 1.66249,-0.39528 3.74351,-0.95331 5.08048,-2.04615 3.23197,-2.65068 6.96387,-14.4625 7.73117,-18.71755 z m 439.45587,6.97549 -32.55228,-8.13808 c 0.22089,9.67269 2.75532,13.25344 5.8129,22.27506 8.23109,-1.20908 9.34716,1.16258 12.46288,0 3.39474,-0.87193 12.41637,-10.82363 14.2765,-14.13698 z m -432.48038,25.57679 19.76389,-4.34806 c 2.82507,-0.53478 7.77767,-0.97657 9.71918,-3.27847 3.6505,-4.32481 -3.45287,-10.43999 -6.18493,-13.28832 -2.4763,-2.55768 -5.9873,-7.17312 -9.55642,-7.55678 -1.95315,-0.60454 -4.76659,-0.0232 -6.76623,0 -6.42908,1.11609 -6.98712,0.44179 -10.40511,9.87032 -0.82543,2.30192 -2.08102,5.69665 -1.81362,8.13807 0.32552,2.91809 3.67375,7.68467 5.24324,10.46324 z M 708.43068,450.42868 695.64229,449.673 c -4.40619,0.90681 -9.66106,6.81273 -12.76515,10.05633 -2.22053,2.31354 -7.23126,7.21963 -4.66195,10.77713 1.38347,1.90664 5.90591,2.48793 8.12645,2.94134 l 22.08904,4.88284 5.20837,-10.46324 z m -424.41206,39.52778 c -2.49956,-10.70739 1.95313,-11.3003 0,-16.27615 -1.63925,-3.83651 -13.29993,-15.3112 -17.36897,-16.20639 -3.03435,-0.66267 -11.73046,2.03453 -15.11357,2.87159 l -33.71487,8.68448 c 2.72044,9.17276 19.84527,20.81021 27.90197,26.33247 3.05758,2.10428 7.84742,5.68503 11.62581,5.70828 2.89483,0.0116 6.6616,-2.16241 9.30066,-3.39474 z m 522.06892,-20.92647 -33.71487,-8.89376 c -3.604,-0.83706 -10.54461,-3.0227 -13.95097,-2.32515 -4.40619,0.90681 -15.6251,11.76532 -17.36897,15.86923 -1.72062,4.40619 1.74387,4.41781 0,15.11357 4.42943,2.59256 21.10086,11.98621 25.50704,11.85832 3.34824,-0.10463 8.67286,-3.98764 11.62582,-5.82453 8.98675,-5.58039 24.46071,-15.7181 27.90195,-25.79768 z m -482.47139,47.66585 11.05615,-1.29047 c 1.87176,-1.11608 4.04578,-5.95242 5.23162,-8.01019 3.44124,-5.94079 14.61365,-19.08959 6.56858,-24.60022 -3.03433,-2.31354 -7.85905,-0.51154 -11.23054,0 -8.80074,1.99963 -20.64745,2.31353 -21.22873,14.13699 -0.19765,4.10391 7.40563,15.19494 9.60292,19.76389 z m 377.83904,0 c 4.88285,-12.7884 14.33464,-16.83419 6.51047,-27.57644 -2.0229,-2.77857 -4.52244,-3.17385 -7.67304,-3.95278 -6.52209,-1.59274 -22.82149,-6.94062 -25.15827,2.48792 -0.90681,3.63888 2.02289,7.49866 3.85977,10.43998 l 10.83526,18.60132 z M 414.29752,489.95646 c -5.83616,-1.09283 -30.58753,-6.11518 -34.87746,-5.34788 -4.62707,0.83706 -7.03362,5.06886 -11.62581,6.81273 l -8.84724,1.52298 c -2.77858,1.29047 -5.56878,7.12663 -7.20802,9.80057 -2.12752,3.47612 -11.8467,16.70629 -8.70773,20.18241 3.30173,3.66213 14.29976,-3.03433 17.7875,-4.77821 11.11428,-5.55714 45.87547,-21.82166 53.47876,-28.1926 z m 196.47631,1.16258 51.15359,27.03002 c 3.58076,1.79038 15.29957,8.88213 18.56643,4.81309 3.97603,-4.9526 -6.4407,-18.22928 -9.26578,-22.54246 -1.54623,-2.34842 -3.68538,-6.26631 -6.25469,-7.4754 -2.08101,-0.97657 -5.21999,-0.44178 -8.85887,-2.18565 -3.89465,-1.87176 -6.27794,-5.34787 -10.46323,-6.20818 -2.91809,-0.59292 -8.53335,0.87193 -11.62582,1.42996 -6.10355,1.09284 -18.1944,2.55768 -23.25163,5.13862 z m -181.36276,4.65033 c -19.64762,5.8594 -37.5165,16.61329 -55.80391,25.73955 l -25.26291,11.71883 c -2.99945,2.13914 -3.40636,4.9526 -5.55713,7.8823 -2.39492,3.27848 -5.49901,5.70828 -8.70774,8.13807 l 2.32517,8.13807 c 26.83238,-7.05687 55.16449,-20.50794 75.5678,-39.50452 6.11518,-5.68502 18.08977,-12.99767 17.43872,-22.1123 z m 258.09315,61.61682 c 2.03451,-11.55606 -0.4069,-7.49865 -5.9873,-15.21819 -2.34842,-3.25523 -2.51118,-6.31282 -5.92917,-8.57986 l -36.91196,-18.35716 c -13.23018,-6.82436 -28.49487,-16.14826 -43.01552,-19.46161 l -1.16259,1.16258 c 2.76695,8.6031 13.99749,17.74099 20.92648,23.54227 20.15916,16.88069 46.28237,31.02931 72.08006,36.91197 z m -419.69199,-48.82843 17.43872,6.47558 17.43873,5.53389 c 2.90645,0.97657 9.48667,3.9179 11.97458,1.19746 3.31336,-3.62726 -7.98693,-19.32211 -9.21926,-20.19405 -2.09266,-1.45322 -5.90592,-1.03469 -8.56823,-1.60436 -2.77857,-0.58128 -5.47577,-2.10427 -8.13808,-2.2089 -5.15023,-0.17439 -18.18277,6.52208 -20.92646,10.80038 z m 488.28431,-2.32516 c -3.92953,-2.44142 -14.24163,-8.02182 -18.60131,-8.56823 -3.96441,-0.48828 -5.76641,1.25559 -9.30066,2.18565 -2.5693,0.6743 -5.53388,0.41854 -7.76604,1.7555 -5.28975,3.18548 -11.35842,16.02038 -11.99785,22.06581 7.8358,-0.70918 22.2867,-6.15006 30.22713,-8.90538 6.67322,-2.30191 12.27687,-3.38311 17.43873,-8.53335 z m -332.49837,79.05555 c 2.42979,-18.00839 10.66087,-41.2484 21.51938,-55.80391 7.23127,-9.68432 10.24235,-15.09032 22.65873,-15.11357 h 88.3562 c 12.86978,0.0232 15.60184,6.1268 22.74009,16.27614 13.2767,18.84545 16.91558,33.19171 22.6006,54.64134 z M 311.99033,532.97198 c -8.01019,-4.10392 -16.92719,-5.97567 -25.57679,-8.31246 -3.16223,-0.86031 -8.52173,-2.81345 -11.62583,-2.3833 -2.53442,0.36041 -8.97512,3.74352 -10.67249,5.67341 -2.94134,3.35986 -4.94098,18.65943 -5.60365,23.62365 l 25.5768,5.11536 c 3.44124,-0.37202 6.56859,-3.11571 9.30066,-5.11536 7.03361,-5.16186 14.90429,-10.47486 18.6013,-18.6013 z m 453.40686,18.6013 c -0.61617,-4.54569 -3.32499,-20.76371 -5.73153,-23.84454 -1.95314,-2.48793 -8.5566,-5.48739 -11.7072,-5.5339 -2.59255,-0.0233 -8.76586,2.0229 -11.62581,2.77857 -8.25433,2.17403 -16.71793,4.24343 -24.41422,7.99857 2.45305,7.02199 12.63726,14.53226 18.60131,19.24072 2.91808,2.29029 5.44088,4.32481 9.30066,4.40619 z m -435.96813,-1.16258 -12.7884,-4.74333 c -5.01073,-0.0465 -14.43927,9.03326 -17.43872,12.8814 8.92862,2.53443 19.53136,0 29.06453,0 z m 396.44036,9.30066 c -3.08085,-4.28993 -10.88177,-13.06743 -16.27615,-13.95099 -2.7437,-0.4534 -16.12501,3.80165 -13.24181,10.11446 1.3021,2.84833 4.81309,2.56931 7.4289,2.85995 z m -526.64951,44.1781 10.96314,-24.41422 c 0.75568,-5.08047 -3.511,-7.55677 -2.54604,-13.95098 2.12751,-14.00911 23.73991,-11.09102 21.531,3.48774 -1.01145,6.63835 -6.04543,7.62654 -9.24252,11.86997 l -5.95242,11.38167 c -6.15005,11.38167 -8.41709,11.20729 -7.82417,24.41422 0.12788,2.80182 -0.11626,5.51063 1.23233,8.09157 1.46486,2.80181 4.62708,5.0921 6.95224,7.21962 3.8249,3.48775 14.17187,14.57878 18.61293,15.77624 3.38312,0.91844 5.87104,-0.96495 11.61419,-0.79055 12.71865,0.37202 15.34608,5.80127 19.76389,16.20638 l 48.82843,-8.13807 c 0.45341,-8.07994 3.58075,-13.89285 11.62582,-16.7528 4.31317,-1.49973 8.48684,-1.55786 12.7884,0 4.11554,1.42997 7.17312,4.58057 11.62581,2.68557 4.03416,-1.709 26.77425,-21.50777 31.38971,-25.65818 2.95295,-2.63906 8.05669,-8.74262 12.521,-7.17313 4.58058,1.59274 2.68556,6.25469 0,8.68448 l -6.7081,5.02236 -16.27613,13.74171 c -5.95242,5.0921 -12.6489,11.59094 -19.76389,14.79967 1.33696,7.58002 1.2207,7.77767 -1.16259,15.11356 l 10.67251,10.4516 13.74171,4.66196 c -0.91844,5.65014 0.70917,10.80038 -1.0347,15.00893 -2.42979,5.85941 -14.72991,12.93953 -22.36807,2.74369 -4.16204,-5.56876 -1.61599,-11.64907 -2.4763,-14.75316 l -6.67322,-11.13754 c -11.80021,5.34788 -16.65979,2.26704 -26.73938,-4.65032 -1.0812,-7.51028 -13.2883,-2.97621 -18.60131,-2.38329 -5.25487,0.59292 -25.11176,3.12735 -28.80877,5.20836 -4.12717,2.32517 -3.83651,6.52209 -7.68466,11.00965 -3.40637,3.9644 -6.89411,4.72008 -9.02163,7.54516 -3.16223,4.19691 -1.82526,13.79985 -2.4763,19.31048 l -1.98801,24.41421 c -0.18603,2.76694 -1.3486,7.69629 0,9.96333 2.33678,3.67376 7.42889,2.04614 11.26541,5.56876 3.25522,2.97622 3.35986,7.60329 8.5101,8.63798 3.03433,0.60455 21.15898,-3.01108 25.55354,-3.72025 2.8367,-0.45342 7.87068,-0.84869 10.20747,-2.20891 3.39474,-1.98802 3.46449,-4.89447 7.38239,-8.55661 l 10.3121,-7.35913 c 6.4407,1.24396 16.31102,5.33625 19.17098,11.64906 2.02288,4.4527 1.16257,10.68413 2.94132,13.47433 1.46486,2.30191 60.17715,15.20632 62.97897,16.65955 7.88522,-6.53715 22.99937,-0.76847 18.81357,12.87578 0.26158,1.72934 58.34097,42.50984 58.56605,44.31495 0.007,0.0521 10.67121,0.0414 10.78211,5.95874 0.06,3.19811 -1.0197,7.03324 -4.29207,9.19702 -3.11563,2.06016 -7.30557,1.78247 -11.63817,-0.26207 -2.25692,-1.06503 0.15351,-8.45921 0.0392,-8.62659 -1.00246,-1.46807 -57.69666,-42.94381 -59.31846,-42.3578 -1.6218,0.58602 -4.54493,2.87142 -7.7967,2.58875 -10.64183,0.54854 -11.46251,-10.77321 -11.14916,-14.24163 -2.08102,-2.90646 -53.64875,-13.99258 -57.00861,-15.32956 -8.10319,-3.23197 -10.41673,4.87122 -22.08905,3.27849 -4.60382,-0.63943 -8.05669,-2.1159 -11.23054,-5.59202 -2.8367,-3.09247 -3.98765,-7.14988 -7.5219,-8.1497 -2.51118,-0.70917 -10.95152,0.75568 -13.79984,1.3021 l -23.25164,3.48774 c -2.51118,26.93702 -41.02751,23.39114 -39.42315,-2.32517 0.33716,-5.25486 1.97639,-9.85868 5.92917,-13.49756 2.45305,-2.26704 5.88267,-3.42962 7.21963,-6.51046 1.18584,-2.70882 1.74387,-16.98533 1.90664,-20.68233 l 2.2089,-29.0413 c -0.65105,-7.47539 -5.25487,-6.1268 -10.0447,-10.07957 -4.26667,-3.511 -6.64997,-8.91701 -7.10338,-14.35789 -0.55803,-6.55695 2.31354,-10.45161 1.38348,-13.95098 -0.82544,-3.12735 -3.94116,-5.42925 -6.25469,-7.46378 -4.01091,-3.53424 -13.56733,-13.63707 -17.43873,-15.25306 -3.74351,-1.68575 -5.74315,-0.11626 -9.30065,0 -6.01055,0.33714 -11.86996,-2.96459 -14.07887,-8.67286 -3.2901,-8.53335 1.33697,-18.74082 10.59113,-20.51957 3.52262,-0.68592 6.99874,0.13951 10.46323,0.75568 z m 563.85212,48.82843 c 5.58039,-3.35987 8.3357,-5.51064 15.11356,-5.7664 6.95223,-0.25578 9.49829,1.82525 12.7884,0.70916 3.12734,-1.05794 8.80074,-7.23125 11.62581,-9.7308 2.87158,-2.53443 12.3815,-10.50974 13.96261,-13.43944 0.77892,-2.19728 0.0465,-5.31301 0,-7.81255 0.4534,-2.6972 1.55785,-5.47577 1.18583,-8.13808 -0.41853,-3.05758 -3.41799,-7.56841 -4.94097,-10.46323 l -8.12645,-16.15989 c -3.35986,-5.21999 -8.88213,-5.95242 -9.94007,-12.90466 -2.49955,-16.54353 24.08869,-16.97368 21.53101,0 -0.61617,4.10392 -2.91808,6.33608 -5.53388,9.30066 4.38293,4.39456 11.70719,19.45 13.95097,25.84419 4.98748,-1.16258 9.1379,-2.2089 13.92773,0 8.64961,4.72009 10.57949,16.64817 4.02254,23.75155 -6.95224,7.54515 -15.14845,3.06921 -19.11284,4.24341 -3.25524,0.95333 -7.91719,5.45252 -10.46325,7.77767 -3.22034,2.94134 -12.521,10.69576 -14.26487,13.62546 -2.9297,3.87141 -0.12788,4.78985 0,11.95135 0.90681,11.69557 -3.96441,19.79876 -15.96225,22.08905 l 2.12753,33.71487 2.02289,19.75226 c 2.41817,8.17295 12.55588,8.917 13.24181,22.10067 1.10445,21.17062 -21.36825,25.41404 -32.29653,16.68305 -4.61544,-3.68538 -6.30119,-8.76587 -7.18475,-14.35788 l -38.3652,-5.81291 c -1.60435,3.68538 -3.12734,7.33589 -6.05705,10.20747 -7.35913,7.208 -19.20584,5.83616 -26.11158,-1.25559 -7.59166,-7.80093 -1.40672,-11.33518 -8.59148,-14.47414 l -26.66962,-8.81237 c -5.7199,0 -5.92916,4.91772 -16.27614,3.8714 -0.70917,2.06068 -30.15422,51.02127 -33.72769,63.49736 -1.96156,6.84841 7.47226,8.35476 -0.26229,19.86572 -5.45989,8.1257 -6.93185,-0.72391 -16.51191,6.88459 -50.32906,39.97137 -49.93629,40.41364 -50.65128,41.99475 -1.87176,4.16204 0.19763,9.39366 -5.84779,13.56733 -9.61455,6.63834 -22.70522,-2.8367 -18.5083,-13.9161 3.99929,-10.52137 13.38942,-5.05633 17.99827,-7.6553 1.28853,-0.95594 1.48859,-1.69438 43.70194,-34.81433 11.48715,-9.01264 -1.87749,-12.65844 8.10171,-22.71338 8.00133,-8.06206 11.99158,-0.25534 13.97217,-6.77399 3.90777,-12.86157 33.03906,-63.65982 33.59709,-64.58698 -11.24216,-7.09175 -4.87121,-27.27417 10.46324,-27.04165 5.78966,0.0813 10.89339,3.12734 13.66033,8.25433 1.69737,3.1506 0.81381,5.75478 4.12717,8.60311 2.49955,2.15077 23.147,9.84706 26.37897,9.70755 2.6972,-0.10463 6.06868,-2.17402 9.31229,-3.01108 l -3.32499,-39.72542 -2.56931,-23.58879 c -1.52297,-3.63887 -5.02234,-4.16204 -7.95205,-6.28956 -3.24361,-2.36004 -5.42926,-5.56876 -6.42907,-9.45179 -3.1506,-12.14898 3.81326,-23.77479 16.78767,-24.36771 11.98622,-0.54642 20.78696,5.92917 21.50776,18.5548 0.38365,6.63834 -4.16204,7.62654 -0.73243,13.95098 l 11.23054,15.11356 27.43693,36.04004 16.9737,20.84509 c 2.87157,2.9762 6.47557,5.32462 10.07957,1.59273 2.61581,-2.73206 0.87194,-9.42853 0.69756,-13.13718 l -2.27867,-25.57679 c -0.18601,-3.81327 -0.41852,-12.74189 -2.39491,-15.83435 -2.48792,-3.90628 -10.71901,-5.5804 -14.17187,-17.88051 -2.37166,-8.44035 2.80182,-11.27705 3.73189,-18.60131 z m -356.93584,-87.1355 c 2.39492,0.40691 3.62726,0.3604 3.69702,3.49937 0.0465,2.23216 -1.802,5.87104 -2.58094,8.06832 -2.23216,6.28957 -1.69736,13.59058 -7.03362,15.55534 -4.84796,1.79038 -10.27722,-2.53442 -8.41709,-9.74243 1.61599,-6.23144 8.54498,-14.8113 14.33463,-17.3806 z m 209.28797,-1.22071 c 8.04506,2.74369 19.6825,14.89267 16.93881,24.28633 -1.62762,5.56877 -9.04488,6.11518 -11.78857,1.11608 l -3.60402,-13.7766 c -1.59272,-4.96421 -2.58093,-6.31281 -1.54622,-11.62581 z m -196.47632,43.01553 h 186.01308 c 0,19.31047 0.43015,22.39132 -3.73189,41.85293 -3.33661,15.56697 -3.95277,17.41547 -14.86943,17.43872 H 428.2485 l -4.77822,-17.43872 c -3.72026,-14.90429 -4.52244,-26.658 -4.52244,-41.85293 z m 150.03117,26.32084 c -9.32391,5.40601 -3.66213,14.25326 3.38311,12.55589 7.68467,-1.86013 7.54516,-13.76497 -3.38311,-12.55589 z m 133.66202,39.96956 c -1.94151,0.4069 -2.54605,0.0581 -3.67376,2.23215 -1.18583,2.27867 0.41853,17.62475 0.82543,21.2055 l 2.73207,27.61131 c 0.3604,2.81345 0.66267,8.78912 2.37167,10.89339 2.25541,2.7902 5.85941,1.97639 11.54444,7.84742 3.94114,4.06904 4.37131,7.09176 7.41726,8.56823 l 12.47451,2.31354 21.98442,3.81326 c 3.06922,-0.1395 5.54552,-2.29027 5.6734,-5.47575 0.17438,-4.25505 -10.67251,-15.91574 -13.70684,-19.74064 l -32.14538,-41.85293 c -3.80165,-4.9061 -10.17259,-15.06707 -15.49722,-17.41548 z m -263.9293,15.09031 h 146.48529 c -1.19746,8.71936 -8.11482,18.33391 -13.00928,25.5768 -11.98622,17.70611 -24.3096,32.38952 -39.26039,47.65422 l -13.99748,13.9161 c -2.13916,1.97639 -4.9061,4.9061 -8.13807,4.17367 -2.36004,-0.53479 -5.26651,-3.62725 -6.9755,-5.30137 l -13.90448,-13.93936 c -11.92808,-12.46287 -26.80913,-31.00605 -36.47018,-45.34068 -4.9526,-7.3359 -12.10248,-18.39204 -14.72991,-26.73938 z m 84.89171,27.36717 c -10.20746,3.8714 -4.84796,14.68341 2.25541,13.48595 6.90574,-1.16258 8.92863,-13.18368 -2.25541,-13.48595 z"
     style="display:inline;fill:#f7ac4c;fill-opacity:1;stroke-width:7.05633;stroke-dasharray:none;paint-order:markers stroke fill"
     inkscape:label="asy_neural_bee"
     sodipodi:nodetypes="csccssccccccccccccccccccccccccccccccccccccccccccccccccsccccsccccccccccccccccccccccccccccccccccccccccccccccccccccccccccccsccccccccccccccccccccccccccccccccccccscccccccccccccccccccccccccccccccccccccccccccccccccccccccscccccscccccccccccccccccccccccccccccccccccccccccccccccccccccccccccccssccccccccccccccccccccccccccccccccccccccccccccccccccccccccccccccccccccccccccccccccccccccccccccccccccccccccccccccccccccccccccccccccccccccccccccscccscccccccccccccccccccccccccccccccccccccccccccccccccccccccccccccccccccccccccccccccccccccccccccccccccccccccccccccccccccccssssssccccccccccccccccccccccccccccccccccccccccccccccccccccccsssccscsssccccccccccccccccccccccccccccccccccccccccccccccccccccccccccccscccccccc" /><g
     inkscape:groupmode="layer"
     id="layer1"
     inkscape:label="EIRB"><path
       style="font-size:131.909px;font-family:Astonpoliz;-inkscape-font-specification:Astonpoliz;letter-spacing:27.8246px;fill:#ffffff;stroke:#000000;stroke-width:9.34787;paint-order:stroke fill markers"
       d="m 394.07944,149.76662 c -18.86298,0 -34.29634,14.24617 -34.29634,33.10916 v 26.3818 c 0,18.86299 15.43336,32.84534 34.29634,32.84534 H 421.3846 V 230.0992 h -27.30516 c -12.39944,0 -21.10544,-8.44217 -21.10544,-20.84162 v -9.49745 h 42.34279 V 188.54787 H 372.974 v -5.67209 c 0,-12.39944 8.706,-21.23735 21.10544,-21.23735 h 25.32653 v -11.87181 z m 64.36323,92.3363 h 13.85045 v -92.3363 h -13.85045 z m 86.91982,-80.46449 c 11.34417,0 17.80771,7.65072 17.80771,15.56526 0,10.157 -6.33163,16.88436 -17.80771,16.88436 -2.50627,0 -13.98236,0 -18.86299,0 v -32.44962 c 0,0 18.20344,0 18.86299,0 z M 513.3086,149.76662 v 92.3363 h 13.1909 v -36.27497 c 3.95727,0 12.26754,0 16.62053,0 l 21.76499,36.27497 h 14.90571 l -22.68834,-37.72597 c 14.7738,-4.08918 19.39062,-16.22481 19.39062,-27.17326 0,-12.26753 -6.85927,-27.43707 -31.13052,-27.43707 -3.42964,0 -6.99118,0 -10.42081,0 -7.255,0 -14.50999,0 -21.63308,0 z m 133.87928,49.72969 c 11.47608,0 21.76498,4.88064 21.76498,16.48863 0,9.76126 -10.42081,14.24617 -21.76498,14.24617 -6.06781,0 -12.66326,0 -18.86299,0 v -30.7348 c 4.88064,0 16.35672,0 18.86299,0 z m 0,-37.85788 c 11.34417,0 17.80771,4.61682 17.80771,12.53136 0,10.15699 -6.33163,14.11426 -17.80771,14.11426 -2.50627,0 -13.98235,0 -18.86299,0 v -26.64562 c 0,0 18.20344,0 18.86299,0 z m -32.05389,-11.87181 v 92.3363 c 1.71482,0 3.29773,0 5.01255,0 6.46354,0 12.53135,0 18.73107,0 2.77009,0 5.54018,0 8.31027,0 25.06271,0 36.01116,-12.13563 36.01116,-26.51371 0,-8.57408 -2.24246,-15.56526 -15.69717,-22.95216 7.3869,-5.14445 11.60799,-10.55272 11.60799,-18.86299 0,-12.66326 -7.91454,-24.00744 -31.92198,-24.00744 -3.42963,0 -6.99118,0 -10.42081,0 -7.255,0 -14.50999,0 -21.63308,0 z"
       id="text1"
       transform="scale(0.9882491,1.0118906)"
       aria-label="EIRB" /></g></svg>
